<svg width="60" height="60" viewBox="0 0 60 60" fill="none" xmlns="http://www.w3.org/2000/svg">
<circle cx="30" cy="30" r="30" fill="url(#paint0_linear_1_9493)"/>
<path opacity="0.6" d="M37.6487 22.3536C37.2464 21.9513 36.5922 21.9513 36.1899 22.3536L30.0014 28.5421C29.7053 28.8382 29.6213 29.2803 29.7804 29.6649C29.9395 30.0494 30.3153 30.3014 30.7352 30.3014H39.6732C40.2434 30.3014 40.7031 29.8373 40.7031 29.2714C40.7031 28.7056 40.239 28.2415 39.6732 28.2415H36.5789C36.5789 27.3265 36.2474 26.4601 35.6728 25.7926L37.6487 23.8123C38.0509 23.4056 38.0509 22.7558 37.6487 22.3536ZM34.5102 28.2371H33.2195L34.2008 27.2558C34.3997 27.5387 34.5102 27.879 34.5102 28.2371Z" fill="#FBFBFB"/>
<path opacity="0.6" d="M42.0752 16.5498H28.3279C27.5676 16.5498 26.9531 17.1687 26.9531 17.9245C26.9531 18.6804 27.572 19.2993 28.3279 19.2993H42.0796C42.8399 19.2993 43.4544 19.9181 43.4544 20.674V31.6719C43.4544 32.4322 42.8355 33.0466 42.0796 33.0466H31.0773C30.317 33.0466 29.7026 33.6655 29.7026 34.4213C29.7026 35.1772 30.317 35.7961 31.0773 35.7961H42.0752C44.3517 35.7961 46.1994 33.9439 46.1994 31.6675V20.674C46.2038 18.3975 44.3517 16.5498 42.0752 16.5498Z" fill="#FBFBFB"/>
<path d="M20.0715 22.0487C22.3492 22.0487 24.1957 20.2022 24.1957 17.9245C24.1957 15.6468 22.3492 13.8003 20.0715 13.8003C17.7937 13.8003 15.9473 15.6468 15.9473 17.9245C15.9473 20.2022 17.7937 22.0487 20.0715 22.0487Z" fill="#FBFBFB"/>
<path d="M21.7924 23.4237H18.3534C15.5155 23.4237 13.1992 25.7356 13.1992 28.5823V34.2624C13.1992 35.1819 13.7076 36.0041 14.5297 36.4152L15.7586 37.0296C15.878 37.0871 15.9487 37.2064 15.9487 37.339V44.3939C15.9487 45.72 17.0273 46.803 18.3578 46.803H21.7968C23.1229 46.803 24.2015 45.7245 24.2059 44.3939V37.339C24.2059 37.2108 24.2767 37.0915 24.396 37.0296L25.6249 36.4152C26.4471 36.0041 26.9554 35.1819 26.9554 34.2624V28.5823C26.951 25.7356 24.6347 23.4237 21.7924 23.4237Z" fill="#FBFBFB"/>
<defs>
<linearGradient id="paint0_linear_1_9493" x1="1.16273e-07" y1="30" x2="54.5274" y2="40.105" gradientUnits="userSpaceOnUse">
<stop stop-color="#0063F4"/>
<stop offset="1" stop-color="#00F0AA"/>
</linearGradient>
</defs>
</svg>
