<svg width="24" height="24" viewBox="0 0 24 24" fill="none" xmlns="http://www.w3.org/2000/svg">
<path d="M7.62906 3.56969C7.80845 3.47184 7.99906 3.62237 7.99906 3.8267V17.3825C7.99906 17.6058 7.84665 17.7946 7.64926 17.8988C7.64249 17.9024 7.63576 17.906 7.62906 17.9097L5.27906 19.2497C3.63906 20.1897 2.28906 19.4097 2.28906 17.5097V7.77969C2.28906 7.14969 2.73906 6.36969 3.29906 6.04969L7.62906 3.56969Z" fill="#8A47CB"/>
<path d="M14.7219 6.10192C14.8922 6.18628 15 6.35991 15 6.54999V19.7031C15 20.0716 14.615 20.3135 14.283 20.1536L10.033 18.106C9.85998 18.0226 9.75 17.8476 9.75 17.6555V4.44522C9.75 4.07437 10.1396 3.83257 10.4719 3.99716L14.7219 6.10192Z" fill="#8A47CB"/>
<path d="M22 6.49006V16.2201C22 16.8501 21.55 17.6301 20.99 17.9501L17.4986 19.951C17.1653 20.1421 16.75 19.9014 16.75 19.5172V6.33038C16.75 6.15087 16.8462 5.98513 17.0021 5.89615L19.01 4.75006C20.65 3.81006 22 4.59006 22 6.49006Z" fill="#8A47CB"/>
</svg>
