<svg width="50" height="50" viewBox="0 0 50 50" fill="none" xmlns="http://www.w3.org/2000/svg">
<path opacity="0.6" d="M39.0289 28.1237C38.2907 28.8618 38.2946 30.0645 39.0348 30.8045L39.7066 31.4761C39.8316 31.6011 39.8316 31.8002 39.7066 31.9232C39.5816 32.0462 39.3844 32.0443 39.2594 31.9232L37.6911 30.3554C36.947 29.6115 35.7479 29.6096 35.0096 30.3495C34.2714 31.0895 34.2753 32.2903 35.0155 33.0303L36.5838 34.5981C36.7088 34.7231 36.7088 34.9222 36.5838 35.0452C36.4588 35.1682 36.2615 35.1663 36.1365 35.0452L33.6718 32.5812C32.9277 31.8373 31.7286 31.8354 30.9904 32.5754C30.2521 33.3153 30.256 34.5161 30.9962 35.2561L33.4609 37.7201C33.5859 37.8451 33.5859 38.0442 33.4609 38.1672C33.3359 38.2902 33.1387 38.2883 33.0137 38.1672L24.2701 29.426C23.526 28.6821 22.3268 28.6802 21.5886 29.4202C20.8504 30.1602 20.8543 31.3609 21.5945 32.1009L32.1153 42.6189C30.7365 42.4041 28.4163 42.3123 26.9906 43.7376C25.6528 45.0751 25.688 45.9986 26.1039 46.4184C27.2347 47.5489 28.1077 45.7623 33.2597 48.2244C38.4118 50.6865 41.7241 50.4854 43.9896 48.2556L47.1105 45.1356C47.0948 45.1512 47.1261 45.12 47.1105 45.1356C50.2821 41.9648 51.1922 37.6284 47.9913 34.4263C47.9854 34.4204 47.9815 34.4165 47.9756 34.4107L41.6987 28.1354C40.9702 27.3877 39.7672 27.3837 39.0289 28.1237Z" fill="#8A47CB"/>
<path d="M47.8935 3.84266C36.9567 -2.30176 29.5607 -0.0525134 24.9984 3.50879C20.4362 -0.054466 13.0402 -2.30371 2.10339 3.84266C0.81245 4.56898 0 5.94352 0 7.46645V38.9324C0 40.223 0.583948 41.4316 1.60342 42.2224C2.62484 43.0131 3.91577 43.2845 5.1657 42.9721C12.0403 41.2442 17.8524 41.2012 22.4771 42.8686C22.8521 42.1814 23.3736 41.4726 24.061 40.7853C24.102 40.7229 24.1645 40.6604 24.227 40.6194L22.0182 38.4111C19.8093 37.7863 17.4149 37.4954 14.8526 37.4954C11.5618 37.4954 7.9995 37.9738 4.16576 38.9324L4.14623 7.46449C11.8957 3.11244 18.0418 3.06949 22.9165 7.23606V24.7087C24.4165 24.6872 25.9164 25.2495 27.0823 26.3546V7.23801C31.957 3.07339 38.1031 3.11439 45.8311 7.46645L45.8526 26.3761L49.9969 30.5212V7.46645C49.9969 5.96695 49.1844 4.56898 47.8935 3.84266Z" fill="#8A47CB"/>
</svg>
