<svg width="50" height="50" viewBox="0 0 50 50" fill="none" xmlns="http://www.w3.org/2000/svg">
<path opacity="0.6" d="M37.0408 12.9587C36.4313 12.3492 35.4402 12.3492 34.8307 12.9587L25.4549 22.3345C25.0062 22.7832 24.879 23.4529 25.1201 24.0355C25.3611 24.6182 25.9304 24.9999 26.5666 24.9999H40.108C40.9719 24.9999 41.6684 24.2967 41.6684 23.4395C41.6684 22.5823 40.9652 21.8791 40.108 21.8791H35.4201C35.4201 20.4928 34.9178 19.1802 34.0472 18.1689L37.0408 15.1687C37.6502 14.5526 37.6502 13.5681 37.0408 12.9587ZM32.2859 21.8724H30.3303L31.8171 20.3857C32.1184 20.8143 32.2859 21.3299 32.2859 21.8724Z" fill="#8A47CB"/>
<path opacity="0.6" d="M43.7484 4.16565H22.9207C21.7688 4.16565 20.8379 5.10323 20.8379 6.24843C20.8379 7.39362 21.7755 8.3312 22.9207 8.3312H43.7551C44.907 8.3312 45.8379 9.26879 45.8379 10.414V27.0762C45.8379 28.2281 44.9003 29.159 43.7551 29.159H27.0862C25.9343 29.159 25.0034 30.0966 25.0034 31.2417C25.0034 32.3869 25.9343 33.3245 27.0862 33.3245H43.7484C47.1974 33.3245 49.9968 30.5185 49.9968 27.0695V10.414C50.0035 6.96501 47.1974 4.16565 43.7484 4.16565Z" fill="#8A47CB"/>
<path d="M10.4104 12.4967C13.8613 12.4967 16.6588 9.69919 16.6588 6.24833C16.6588 2.79747 13.8613 0 10.4104 0C6.95958 0 4.16211 2.79747 4.16211 6.24833C4.16211 9.69919 6.95958 12.4967 10.4104 12.4967Z" fill="#8A47CB"/>
<path d="M13.019 14.5798H7.80874C3.50924 14.5798 0 18.0824 0 22.3953V31.001C0 32.3939 0.770159 33.6396 2.01581 34.2624L3.87758 35.1933C4.0584 35.2804 4.16555 35.4612 4.16555 35.6621V46.3505C4.16555 48.3597 5.79963 50.0004 7.81544 50.0004H13.0257C15.0348 50.0004 16.6689 48.3664 16.6756 46.3505V35.6621C16.6756 35.4679 16.7828 35.2871 16.9636 35.1933L18.8254 34.2624C20.071 33.6396 20.8412 32.3939 20.8412 31.001V22.3953C20.8345 18.0824 17.3252 14.5798 13.019 14.5798Z" fill="#8A47CB"/>
</svg>
