<svg width="100" height="101" viewBox="0 0 100 101" fill="none" xmlns="http://www.w3.org/2000/svg">
<circle cx="50" cy="50.0146" r="50" fill="url(#paint0_linear_1_9770)"/>
<path opacity="0.6" d="M78.881 62.3879L63.2539 55.2933C62.7803 55.0819 62.2172 55.0819 61.7436 55.2933L46.1165 62.3879C45.4382 62.6917 44.9902 63.3919 44.9902 64.1582C44.9902 64.9245 45.4382 65.6247 46.1165 65.9286L61.7436 73.0231C61.9868 73.1288 62.2428 73.1817 62.4988 73.1817C62.7547 73.1817 63.0107 73.1288 63.2539 73.0231L78.881 65.9418C79.5593 65.6379 80.0073 64.9377 80.0073 64.1714C80.0073 63.4052 79.5593 62.705 78.881 62.3879Z" fill="#FBFBFB"/>
<path opacity="0.6" d="M62.4856 77.0658C61.7049 77.0658 60.9498 76.9072 60.233 76.577L49.9941 71.9265V73.6969C49.9941 75.269 50.7877 76.7487 52.0675 77.5546C55.6767 79.8138 59.0812 80.9367 62.4856 80.9367C65.89 80.9367 69.3073 79.8006 72.9037 77.5546C74.1836 76.7487 74.9771 75.269 74.9771 73.6969V71.9265L64.751 76.577C64.0342 76.9072 63.2663 77.0658 62.4856 77.0658Z" fill="#FBFBFB"/>
<path d="M42.4965 44.8167C49.3821 44.8167 54.9879 39.0301 54.9879 31.9091C54.9879 24.7881 49.3821 19.0146 42.4965 19.0146C35.6108 19.0146 29.9922 24.8013 29.9922 31.9223C29.9922 39.0433 35.598 44.8167 42.4965 44.8167Z" fill="#FBFBFB"/>
<path d="M39.9915 64.1706C39.9915 61.3565 41.5913 58.8067 44.087 57.6705L58.5367 51.0912C57.0904 50.3646 55.465 49.9814 53.7372 49.9814H31.25C25.0555 49.9814 20 55.1868 20 61.5943V71.9125C20 72.6259 20.5503 73.2072 21.2543 73.2072H44.9957V71.067L44.0998 70.6574C41.5913 69.508 39.9915 66.9582 39.9915 64.1706Z" fill="#FBFBFB"/>
<defs>
<linearGradient id="paint0_linear_1_9770" x1="1.93788e-07" y1="50.0146" x2="90.8789" y2="66.8563" gradientUnits="userSpaceOnUse">
<stop stop-color="#0063F4"/>
<stop offset="1" stop-color="#00F0AA"/>
</linearGradient>
</defs>
</svg>
