<svg width="90" height="134" viewBox="0 0 90 134" fill="none" xmlns="http://www.w3.org/2000/svg">
<path d="M7.03417 1.0398C0.0479225 29.9578 -2.3005 61.4495 15.7776 87.1555C25.4306 100.881 43.9226 108.31 54.352 91.2434C61.4551 79.6194 66.2556 57.5838 53.4605 48.0303C39.3313 37.4806 46.7969 77.2598 48.3819 81.3677C55.8008 100.596 66.9358 114.055 81.7324 127.811C87.2751 132.964 82.8201 132.631 78.1227 130.814C74.0469 129.238 69.4526 127.338 65.9402 124.736C64.8689 123.943 72.6665 127.541 73.8688 128.168C79.0245 130.858 85.0826 133.76 87.1592 126.303C87.4928 125.105 89.6325 113.695 88.0339 112.953C87.2021 112.568 81.7535 118.764 80.8144 119.445C74.7152 123.869 70.2067 124.71 63.2377 122.408" stroke="url(#paint0_linear_1_10434)" stroke-width="2" stroke-linecap="round"/>
<defs>
<linearGradient id="paint0_linear_1_10434" x1="-3.99308" y1="57.206" x2="91.0732" y2="59.5465" gradientUnits="userSpaceOnUse">
<stop stop-color="#0063F4"/>
<stop offset="1" stop-color="#00F0AA"/>
</linearGradient>
</defs>
</svg>
