<svg width="42" height="42" viewBox="0 0 42 42" fill="none" xmlns="http://www.w3.org/2000/svg">
<g clip-path="url(#clip0_1_12749)">
<path d="M33.0648 39.7028C33.4241 39.7027 33.7693 39.8451 34.0277 40.1001C35.7154 41.7654 38.1773 42.3199 40.3659 41.6259C38.9574 38.6276 38.7622 35.1926 39.8537 32.0121C41.2083 28.055 41.5477 24.0887 40.0061 20.1109C38.6517 16.6164 36.0381 13.7132 32.7304 12.0576C32.9345 13.172 33.037 14.3034 33.0364 15.4371C33.0365 20.2821 31.2132 24.8389 27.9027 28.2683C24.5918 31.6981 20.1536 33.6267 15.4058 33.6988C14.5271 33.7126 13.6486 33.6605 12.7773 33.5429C15.3867 38.2165 20.3078 41.2603 25.7156 41.3423C28.0812 41.3797 30.3526 40.8732 32.468 39.841C32.6543 39.75 32.8583 39.7027 33.0648 39.7028Z" fill="#F2F2F2"/>
<path d="M15.4444 0.00307996C7.02182 -0.167809 0.0203542 6.79454 4.56701e-05 15.399C-0.00492992 17.5012 0.396671 19.5394 1.19378 21.4573C1.20536 21.4852 1.21612 21.5134 1.22587 21.542C2.31735 24.7225 2.12229 28.1574 0.713687 31.1558C2.90244 31.8495 5.36403 31.2954 7.05188 29.63C7.25503 29.4295 7.51329 29.2973 7.79205 29.251C8.07081 29.2047 8.35675 29.2466 8.61157 29.371C10.7266 30.4032 12.9983 30.9112 15.3638 30.8724C23.7205 30.7456 30.2664 23.9655 30.2663 15.4369C30.2664 7.09451 23.6172 0.17096 15.4444 0.00307996ZM7.06101 17.7424C5.85093 17.7424 4.86993 16.7417 4.86993 15.5073C4.86993 14.2729 5.85093 13.2721 7.06101 13.2721C8.2711 13.2721 9.2521 14.2729 9.2521 15.5073C9.252 16.7417 8.2711 17.7424 7.06101 17.7424ZM15.1332 17.7424C13.9232 17.7424 12.9422 16.7417 12.9422 15.5073C12.9422 14.2729 13.9232 13.2721 15.1332 13.2721C16.3433 13.2721 17.3243 14.2729 17.3243 15.5073C17.3243 16.7417 16.3433 17.7424 15.1332 17.7424ZM23.2056 17.7424C21.9955 17.7424 21.0145 16.7417 21.0145 15.5073C21.0145 14.2729 21.9955 13.2721 23.2056 13.2721C24.4157 13.2721 25.3967 14.2729 25.3967 15.5073C25.3967 16.7417 24.4157 17.7424 23.2056 17.7424Z" fill="#F2F2F2"/>
</g>
<defs>
<clipPath id="clip0_1_12749">
<rect width="41.0233" height="42" fill="white"/>
</clipPath>
</defs>
</svg>
