<svg width="145" height="66" viewBox="0 0 145 66" fill="none" xmlns="http://www.w3.org/2000/svg">
<path d="M1.23901 1.40498C14.0472 28.2566 32.078 54.1821 62.3172 62.7387C78.4636 67.3076 97.5012 61.416 94.837 41.5929C93.0225 28.0918 82.8565 7.96059 66.9016 8.61139C49.283 9.33004 80.1566 35.5014 83.9768 37.6908C101.858 47.9392 118.986 51.3667 139.144 52.7159C146.695 53.2215 143.027 55.7717 138.236 57.3231C134.079 58.6693 129.314 60.0904 124.948 60.2856C123.616 60.3451 131.937 58.2221 133.266 57.9511C138.964 56.7886 145.496 55.2221 142.406 48.1241C141.91 46.9838 136.377 36.7779 134.669 37.2104C133.78 37.4355 133.457 45.6802 133.158 46.801C131.213 54.0804 128.243 57.5754 121.382 60.1819" stroke="url(#paint0_linear_1_3377)" stroke-width="2" stroke-linecap="round"/>
<defs>
<linearGradient id="paint0_linear_1_3377" x1="28.0889" y1="51.9552" x2="103.358" y2="-6.16198" gradientUnits="userSpaceOnUse">
<stop stop-color="#0063F4"/>
<stop offset="1" stop-color="#00F0AA"/>
</linearGradient>
</defs>
</svg>
