<svg width="60" height="60" viewBox="0 0 60 60" fill="none" xmlns="http://www.w3.org/2000/svg">
<path d="M34.1067 28.4531C34.1908 28.6174 34.3187 28.7554 34.4763 28.8517C34.6339 28.948 34.8149 28.999 34.9996 28.999C35.1571 28.9989 35.3123 28.9616 35.4526 28.89C35.5116 28.86 41.3974 25.8701 44.3002 24.9532C44.8262 24.7862 45.1181 24.2242 44.9511 23.6983C44.9117 23.573 44.848 23.4566 44.7635 23.3559C44.6791 23.2553 44.5756 23.1722 44.4591 23.1116C44.3425 23.0509 44.2151 23.0139 44.0842 23.0025C43.9533 22.9911 43.8215 23.0057 43.6962 23.0454C40.6384 24.0123 34.7927 26.9822 34.5447 27.1082C34.0527 27.3581 33.8567 27.9602 34.1067 28.4531ZM34.9996 16.9997C35.1571 16.9997 35.3123 16.9623 35.4526 16.8908C35.5116 16.8608 41.3974 13.8709 44.3002 12.9539C44.8262 12.787 45.1181 12.225 44.9511 11.699C44.9117 11.5737 44.848 11.4574 44.7635 11.3567C44.6791 11.256 44.5756 11.173 44.4591 11.1123C44.3425 11.0517 44.2151 11.0146 44.0842 11.0033C43.9533 10.9919 43.8215 11.0065 43.6962 11.0461C40.6384 12.0131 34.7927 14.9829 34.5447 15.1089C34.0528 15.3589 33.8567 15.9608 34.1067 16.4538C34.1909 16.6182 34.3188 16.7561 34.4763 16.8524C34.6339 16.9488 34.8149 16.9997 34.9996 16.9997Z" fill="url(#paint0_linear_1_3373)"/>
<path d="M58.997 14.9998C58.8656 14.9998 58.7356 15.0256 58.6143 15.0758C58.4929 15.1261 58.3827 15.1997 58.2898 15.2926C58.1969 15.3854 58.1233 15.4957 58.0731 15.617C58.0228 15.7384 57.997 15.8684 57.997 15.9997V54.9977C57.997 56.6516 56.6511 57.9975 54.9972 57.9975H30.9985V55.6967C32.4564 55.1867 36.2542 53.9978 39.998 53.9978C48.7085 53.9978 54.6233 55.9267 54.6822 55.9466C54.8325 55.996 54.9923 56.0093 55.1487 55.9853C55.3051 55.9613 55.4536 55.9008 55.5822 55.8086C55.7107 55.716 55.8153 55.5941 55.8874 55.4531C55.9596 55.3121 55.9972 55.156 55.9971 54.9976V11.0001C55.9974 10.7725 55.9199 10.5517 55.7775 10.3742C55.6351 10.1967 55.4363 10.0732 55.2141 10.0241C55.2141 10.0241 54.4302 9.84912 53.0902 9.60304C52.5492 9.50308 52.0263 9.86306 51.9262 10.405C51.8263 10.949 52.1852 11.47 52.7282 11.5699C53.1518 11.6476 53.5748 11.7286 53.9972 11.813V53.6687C51.7312 53.0747 46.6996 51.9979 39.9979 51.9979C35.6411 51.9979 31.3614 53.4288 30.0373 53.9138C28.8604 53.3938 25.3026 51.9979 20.9988 51.9979C14.1111 51.9979 8.43741 53.1338 5.99957 53.7108V11.7739C7.99646 11.2829 13.8942 10 20.9988 10C24.6446 10 27.7714 11.1349 28.9984 11.648V50.9979C28.9985 51.1749 29.0455 51.3487 29.1347 51.5016C29.2239 51.6544 29.352 51.7809 29.5061 51.868C29.6601 51.9552 29.8345 51.9999 30.0115 51.9975C30.1884 51.9952 30.3616 51.946 30.5133 51.8549C30.6123 51.7959 40.5198 45.8782 49.3133 42.9473C49.5125 42.881 49.6858 42.7536 49.8085 42.5833C49.9313 42.413 49.9973 42.2084 49.9973 41.9984V1.00052C49.9973 0.83888 49.958 0.679661 49.883 0.53651C49.8079 0.39336 49.6993 0.27055 49.5663 0.178607C49.4336 0.0863654 49.2804 0.0277157 49.12 0.00769306C48.9596 -0.0123295 48.7967 0.0068731 48.6454 0.0636526C40.6448 3.06443 32.5494 8.10218 32.4683 8.15221C32.0002 8.44517 31.8573 9.06213 32.1502 9.53015C32.4422 9.99817 33.0592 10.1411 33.5282 9.84818C33.6021 9.80119 40.6448 5.41943 47.9974 2.46259V41.2826C41.1717 43.6544 34.0451 47.5273 30.9982 49.2611V11.0001C30.9982 10.8143 30.9465 10.6322 30.8488 10.4741C30.7511 10.316 30.6114 10.1883 30.4452 10.1052C30.2732 10.0202 26.1755 8.00023 20.9988 8.00023C11.9633 8.00023 5.01665 9.95517 4.72464 10.0391C4.51577 10.0987 4.33201 10.2248 4.2012 10.3982C4.07038 10.5716 3.99962 10.7829 3.99963 11.0001V54.9978C3.99992 55.1524 4.0359 55.3049 4.10476 55.4433C4.17362 55.5817 4.27351 55.7023 4.39665 55.7958C4.57028 55.927 4.78202 55.998 4.99966 55.9978C5.09165 55.9978 5.18364 55.9848 5.27363 55.9588C5.34265 55.9398 12.2573 53.9979 20.9988 53.9979C24.6546 53.9979 27.7784 55.1359 28.9984 55.6468V57.9977H4.99966C3.34576 57.9977 1.99982 56.6517 1.99982 54.9978V15.9998C1.99982 15.4479 1.55183 14.9999 0.999909 14.9999C0.447984 14.9999 0 15.4479 0 15.9998V54.9978C0 57.7546 2.24285 59.9976 4.99978 59.9976H54.9972C57.754 59.9976 59.997 57.7547 59.997 54.9978V15.9998C59.997 15.8685 59.9712 15.7385 59.9209 15.6171C59.8707 15.4958 59.797 15.3855 59.7041 15.2927C59.6113 15.1998 59.501 15.1261 59.3797 15.0759C59.2583 15.0256 59.1283 14.9998 58.997 14.9998Z" fill="url(#paint1_linear_1_3373)"/>
<path d="M34.106 22.4533C34.1902 22.6177 34.3181 22.7556 34.4756 22.852C34.6332 22.9483 34.8143 22.9993 34.9989 22.9993C35.1564 22.9992 35.3117 22.9618 35.452 22.8903C35.5109 22.8603 41.3967 19.8704 44.2995 18.9535C44.8255 18.7865 45.1174 18.2245 44.9505 17.6986C44.911 17.5732 44.8473 17.4569 44.7629 17.3562C44.6784 17.2555 44.575 17.1725 44.4584 17.1118C44.3419 17.0512 44.2145 17.0141 44.0836 17.0028C43.9527 16.9914 43.8208 17.006 43.6956 17.0456C40.6377 18.0126 34.792 20.9824 34.544 21.1084C34.052 21.3584 33.8561 21.9604 34.106 22.4533ZM34.106 34.4527C34.1902 34.6171 34.3181 34.755 34.4756 34.8513C34.6332 34.9477 34.8143 34.9986 34.9989 34.9986C35.1564 34.9986 35.3117 34.9612 35.452 34.8896C35.5109 34.8597 41.3967 31.8698 44.2995 30.9528C44.8255 30.7858 45.1174 30.2238 44.9505 29.6979C44.911 29.5726 44.8473 29.4563 44.7629 29.3556C44.6784 29.2549 44.575 29.1719 44.4584 29.1112C44.3419 29.0506 44.2145 29.0135 44.0836 29.0021C43.9527 28.9908 43.8208 29.0053 43.6956 29.045C40.6377 30.012 34.792 32.9818 34.544 33.1078C34.052 33.3577 33.8561 33.9598 34.106 34.4527ZM24.2266 18.5576C18.0519 17.1087 11.0352 18.9546 10.7403 19.0336C10.6119 19.0662 10.4913 19.124 10.3854 19.2036C10.2795 19.2832 10.1905 19.383 10.1236 19.4973C10.0566 19.6116 10.013 19.7381 9.9953 19.8693C9.9776 20.0006 9.98615 20.1341 10.0205 20.262C10.0548 20.39 10.1142 20.5098 10.1952 20.6146C10.2762 20.7194 10.3772 20.8071 10.4923 20.8725C10.6075 20.938 10.7345 20.9799 10.866 20.9958C10.9975 21.0118 11.1309 21.0015 11.2583 20.9655C11.3254 20.9465 18.081 19.1695 23.7707 20.5045C24.3057 20.6295 24.8467 20.2965 24.9727 19.7585C25.0985 19.2216 24.7646 18.6836 24.2266 18.5576ZM24.2266 24.5573C18.0519 23.1094 11.0352 24.9543 10.7403 25.0333C10.6119 25.0659 10.4913 25.1237 10.3854 25.2033C10.2795 25.2829 10.1905 25.3827 10.1236 25.497C10.0566 25.6113 10.013 25.7378 9.9953 25.869C9.9776 26.0003 9.98615 26.1338 10.0205 26.2617C10.0548 26.3896 10.1142 26.5095 10.1952 26.6143C10.2762 26.7191 10.3772 26.8068 10.4923 26.8722C10.6075 26.9377 10.7345 26.9796 10.866 26.9955C10.9975 27.0115 11.1309 27.0011 11.2583 26.9651C11.3254 26.9462 18.081 25.1692 23.7707 26.5042C24.3057 26.6292 24.8467 26.2962 24.9727 25.7582C25.0985 25.2212 24.7646 24.6833 24.2266 24.5573ZM34.106 40.4524C34.1902 40.6167 34.3181 40.7547 34.4756 40.851C34.6332 40.9474 34.8143 40.9983 34.9989 40.9983C35.1564 40.9982 35.3117 40.9609 35.452 40.8893C35.5109 40.8593 41.3967 37.8695 44.2995 36.9525C44.8255 36.7855 45.1174 36.2235 44.9505 35.6976C44.911 35.5723 44.8473 35.4559 44.7629 35.3553C44.6784 35.2546 44.575 35.1715 44.4584 35.1109C44.3419 35.0503 44.2145 35.0132 44.0836 35.0018C43.9527 34.9905 43.8208 35.005 43.6956 35.0447C40.6377 36.0117 34.792 38.9815 34.544 39.1075C34.052 39.3574 33.8561 39.9595 34.106 40.4524ZM24.2266 30.557C18.0519 29.1091 11.0352 30.9529 10.7403 31.033C10.4841 31.1017 10.2658 31.2694 10.1332 31.4991C10.0006 31.7288 9.9647 32.0017 10.0333 32.2579C10.0903 32.4704 10.2157 32.6583 10.3901 32.7924C10.5645 32.9265 10.7783 32.9994 10.9983 32.9999C11.0843 32.9999 11.1713 32.9879 11.2583 32.9648C11.3254 32.9458 18.081 31.1689 23.7707 32.5038C24.3057 32.6289 24.8467 32.2958 24.9727 31.7579C25.0985 31.2209 24.7646 30.683 24.2266 30.557ZM24.2266 42.5564C18.0519 41.1074 11.0352 42.9534 10.7403 43.0323C10.4841 43.1011 10.2658 43.2687 10.1332 43.4984C10.0006 43.7281 9.9647 44.0011 10.0333 44.2572C10.0903 44.4698 10.2157 44.6576 10.3901 44.7918C10.5645 44.9259 10.7783 44.9988 10.9983 44.9992C11.0843 44.9992 11.1713 44.9873 11.2583 44.9642C11.3254 44.9452 18.081 43.1683 23.7707 44.5032C24.3057 44.6272 24.8467 44.2952 24.9727 43.7572C25.0985 43.2203 24.7646 42.6823 24.2266 42.5564ZM24.2266 36.5567C18.0519 35.1077 11.0352 36.9526 10.7403 37.0327C10.4841 37.1014 10.2658 37.269 10.1332 37.4987C10.0006 37.7284 9.9647 38.0014 10.0333 38.2576C10.0903 38.4701 10.2157 38.658 10.3901 38.7921C10.5645 38.9262 10.7783 38.9991 10.9983 38.9996C11.0843 38.9996 11.1713 38.9876 11.2583 38.9645C11.3254 38.9455 18.081 37.1686 23.7707 38.5035C24.3057 38.6286 24.8467 38.2955 24.9727 37.7575C25.0985 37.2206 24.7646 36.6826 24.2266 36.5567Z" fill="url(#paint2_linear_1_3373)"/>
<defs>
<linearGradient id="paint0_linear_1_3373" x1="33.998" y1="19.9993" x2="44.2072" y2="21.1555" gradientUnits="userSpaceOnUse">
<stop stop-color="#0063F4"/>
<stop offset="1" stop-color="#00F0AA"/>
</linearGradient>
<linearGradient id="paint1_linear_1_3373" x1="1.16267e-07" y1="29.9988" x2="54.5246" y2="40.1032" gradientUnits="userSpaceOnUse">
<stop stop-color="#0063F4"/>
<stop offset="1" stop-color="#00F0AA"/>
</linearGradient>
<linearGradient id="paint2_linear_1_3373" x1="9.98633" y1="30.9991" x2="41.2197" y2="38.2366" gradientUnits="userSpaceOnUse">
<stop stop-color="#0063F4"/>
<stop offset="1" stop-color="#00F0AA"/>
</linearGradient>
</defs>
</svg>
