<svg width="154" height="38" viewBox="0 0 154 38" fill="none" xmlns="http://www.w3.org/2000/svg">
<g opacity="0.5">
<path d="M62.3952 18.415C61.9282 18.415 61.4723 18.5156 61.0386 18.6945C60.5715 18.8733 60.1712 19.108 59.8043 19.4209C59.4151 19.7003 59.1148 20.0356 58.8591 20.4045C58.6033 20.7621 58.4254 21.1309 58.3253 21.5109H58.2697V18.8062H55.3896L55.334 32.7321H58.4143V26.0709C58.4143 25.2997 58.5143 24.5956 58.7256 24.0033C58.9258 23.4109 59.2149 22.9192 59.5485 22.5056C59.9043 22.1145 60.2935 21.8127 60.7495 21.6003C61.2165 21.3992 61.6947 21.2874 62.2173 21.2874C62.4508 21.2874 62.651 21.3097 62.8845 21.3433C63.1181 21.3656 63.3516 21.3992 63.5517 21.4439V18.4821C63.4183 18.4821 63.2737 18.4597 63.1403 18.4262C63.018 18.4374 62.7622 18.415 62.3952 18.415Z" fill="#878787"/>
<path d="M98.4585 14.5703H95.3782V18.8062H93.043V21.0974H95.3782V29.3568C95.4004 29.9268 95.456 30.4633 95.5561 30.8991C95.6562 31.335 95.8341 31.7039 96.1232 32.0056C96.4012 32.285 96.7904 32.5197 97.2797 32.6762C97.769 32.8327 98.414 32.9109 99.2257 32.9109C99.5816 32.9109 99.8929 32.9109 100.227 32.855C100.56 32.8327 100.894 32.7991 101.227 32.7544V30.3515C101.027 30.4074 100.794 30.4297 100.582 30.4521C100.382 30.4744 100.149 30.4744 99.9374 30.4744C99.5816 30.4744 99.3258 30.4186 99.1145 30.3403C98.9366 30.2621 98.7809 30.1391 98.6809 29.9827C98.603 29.8262 98.5252 29.625 98.5029 29.3903C98.4807 29.1333 98.4473 28.8762 98.4473 28.5409V21.0638H101.216V18.7727H98.4473V14.5703H98.4585Z" fill="#878787"/>
<path d="M74.615 26.9315C74.615 27.4679 74.5594 27.9932 74.4371 28.4515C74.3037 28.9209 74.1258 29.3232 73.8478 29.6585C73.592 29.9938 73.2361 30.2509 72.7913 30.4632C72.3577 30.6644 71.8128 30.7762 71.1789 30.7762C70.3338 30.7762 69.6666 30.5191 69.1996 30.005C68.7103 29.5132 68.4768 28.6415 68.4768 27.4009V18.8062H65.3965V27.7026C65.3965 29.5356 65.8079 30.9326 66.6308 31.8267C67.4537 32.7544 68.7881 33.1903 70.6118 33.1903C71.3791 33.1903 72.1464 32.9891 72.8914 32.542C73.6365 32.095 74.2036 31.5585 74.5817 30.8432H74.6373V32.7991H77.6619H77.6842V18.8062H74.615V26.9315Z" fill="#878787"/>
<path d="M56.0566 13.4639H40.4773L40.4551 16.3809H46.56V32.8104H49.9183V16.3809H56.0566V13.4639Z" fill="#878787"/>
<path d="M90.7634 25.7131C90.352 25.3778 89.8627 25.1431 89.3289 24.9643C88.7951 24.7855 88.2503 24.629 87.6831 24.4949C87.116 24.3608 86.5489 24.2378 86.0151 24.1372C85.4813 24.0366 84.9921 23.9025 84.5806 23.7461C84.1469 23.5672 83.8133 23.3884 83.5576 23.1537C83.3018 22.919 83.1684 22.6396 83.1684 22.2484C83.1684 21.9355 83.2685 21.6784 83.4464 21.4996C83.6243 21.3208 83.8578 21.1643 84.1136 21.0637C84.3916 20.9631 84.6473 20.9072 84.9587 20.8625C85.2367 20.8402 85.5258 20.8066 85.726 20.8066C86.4154 20.8066 87.0048 20.9408 87.5497 21.1978C88.0612 21.4549 88.3948 21.9466 88.5505 22.6955H91.7642C91.6641 21.9243 91.4528 21.2537 91.097 20.7061C90.7634 20.1696 90.3297 19.7002 89.7848 19.3649C89.2733 19.0072 88.6506 18.7725 88.0167 18.6161C87.3718 18.4596 86.6823 18.3813 85.9595 18.3813C85.3479 18.3813 84.6807 18.4372 83.9801 18.5602C83.2907 18.6943 82.6457 18.9178 82.0786 19.2308C81.5115 19.5437 81.0222 19.9572 80.6664 20.4713C80.2771 20.9855 80.0992 21.6113 80.0992 22.3825C80.0992 23.109 80.2327 23.6678 80.4884 24.1596C80.7219 24.6514 81.0778 25.0314 81.4892 25.3443C81.9229 25.6796 82.39 25.9143 82.9237 26.0931C83.4575 26.2719 84.0246 26.4284 84.5917 26.5625C85.1589 26.6966 85.6926 26.8196 86.2375 26.9202C86.7824 27.0208 87.2606 27.1549 87.672 27.3114C88.0834 27.4902 88.4171 27.669 88.6951 27.9261C88.9731 28.1831 89.1065 28.5184 89.1287 28.9096C89.151 29.3008 89.0509 29.6025 88.8507 29.8596C88.6506 30.1166 88.3837 30.2955 88.0501 30.4296C87.7387 30.5637 87.3829 30.6308 87.027 30.6866C86.6712 30.7425 86.3376 30.7649 86.0485 30.7649C85.2256 30.7649 84.5139 30.5861 83.9134 30.2284C83.3241 29.8372 82.9904 29.2225 82.8904 28.3172H82.8681V28.2949H79.7656C79.7879 29.1443 79.9658 29.8708 80.2771 30.4631C80.5885 31.0778 81.0222 31.5696 81.556 31.9831C82.0897 32.3743 82.7569 32.6761 83.502 32.8884C84.247 33.0896 85.0699 33.2014 85.9373 33.2014C86.6601 33.2014 87.3718 33.1008 88.1168 32.9443C88.8396 32.7655 89.5291 32.5084 90.1184 32.1396C90.7078 31.7819 91.1971 31.2902 91.5863 30.7202C91.9755 30.1278 92.1534 29.4349 92.1534 28.6078C92.1534 27.9372 92.02 27.3449 91.7642 26.8755C91.5307 26.4172 91.1748 26.0261 90.7634 25.7131Z" fill="#878787"/>
<path d="M143.047 20.5049C142.436 19.8567 141.713 19.3426 140.834 18.9849C139.967 18.5937 138.955 18.4149 137.854 18.4149C136.753 18.4149 135.752 18.6161 134.874 18.9849C134.007 19.3426 133.261 19.8567 132.672 20.5049C132.083 21.1755 131.616 21.9467 131.315 22.852C130.982 23.7573 130.826 24.7296 130.826 25.7914C130.826 26.8532 131.004 27.859 131.315 28.7532C131.627 29.6473 132.083 30.452 132.672 31.1002C133.284 31.7485 134.007 32.2402 134.874 32.6202C135.741 33.0114 136.742 33.1902 137.854 33.1902C138.988 33.1902 139.956 32.989 140.834 32.6202C141.702 32.2626 142.447 31.7485 143.047 31.1002C143.637 30.4296 144.07 29.6585 144.404 28.7532C144.737 27.8479 144.893 26.8755 144.893 25.7914C144.893 24.7296 144.715 23.7573 144.404 22.852C144.092 21.9467 143.637 21.1532 143.047 20.5049ZM141.579 27.602C141.424 28.172 141.19 28.7085 140.856 29.1779C140.523 29.6473 140.134 30.0273 139.622 30.3179C139.133 30.5973 138.521 30.7537 137.854 30.7537C137.187 30.7537 136.597 30.6196 136.086 30.3179C135.597 30.0385 135.185 29.6473 134.852 29.1779C134.518 28.7085 134.285 28.1943 134.129 27.602C133.973 27.0096 133.895 26.4173 133.895 25.7914C133.895 25.199 133.973 24.6067 134.129 24.0143C134.285 23.422 134.518 22.9079 134.852 22.4384C135.185 22.0026 135.574 21.6114 136.086 21.332C136.575 21.0526 137.187 20.8961 137.854 20.8961C138.521 20.8961 139.111 21.0526 139.622 21.332C140.111 21.6114 140.523 21.9802 140.856 22.4384C141.19 22.9079 141.424 23.422 141.579 24.0143C141.735 24.6067 141.813 25.199 141.813 25.7914C141.813 26.4173 141.735 27.0096 141.579 27.602Z" fill="#878787"/>
<path d="M128.473 13.4639H125.393V32.8104H128.473V13.4639Z" fill="#878787"/>
<path d="M153.365 30.4633C153.165 30.4856 152.931 30.4856 152.72 30.4856C152.364 30.4856 152.108 30.4297 151.897 30.3515C151.719 30.2733 151.564 30.1503 151.463 29.9939C151.386 29.8374 151.308 29.6362 151.286 29.4015C151.263 29.1444 151.23 28.8874 151.23 28.5521V21.075H153.999V18.7727H151.23V14.5703H148.15V18.8062H145.814V21.0974H148.15V29.3568C148.172 29.9268 148.228 30.4633 148.328 30.8991C148.428 31.335 148.606 31.7039 148.895 32.0056C149.173 32.285 149.562 32.5197 150.051 32.6762C150.54 32.8327 151.185 32.9109 151.997 32.9109C152.353 32.9109 152.664 32.9109 152.998 32.855C153.332 32.8327 153.665 32.7991 153.999 32.7544V30.3515C153.799 30.4074 153.565 30.4409 153.365 30.4633Z" fill="#878787"/>
<path d="M122.645 18.8062H119.564V32.8103H122.645V18.8062Z" fill="#878787"/>
<path d="M122.645 13.4637H119.564V16.3808H122.645V13.4637Z" fill="#878787"/>
<path d="M115.561 20.6056C115.027 19.9127 114.36 19.3986 113.537 19.0074C112.714 18.5939 111.769 18.415 110.657 18.415C109.734 18.415 108.911 18.5939 108.144 18.9515C107.377 19.3092 106.787 19.8792 106.343 20.7062H106.287V18.795H103.418V37.9962H106.498V30.9998H106.554C106.787 31.3574 107.065 31.6927 107.421 31.9833C107.755 32.2627 108.144 32.4974 108.555 32.6762C108.967 32.855 109.401 32.9892 109.834 33.0674C110.268 33.1456 110.735 33.2015 111.169 33.2015C112.192 33.2015 113.07 33.0003 113.838 32.5868C114.605 32.1733 115.228 31.6368 115.717 30.9662C116.206 30.2956 116.562 29.4909 116.818 28.6192C117.051 27.7474 117.174 26.8421 117.174 25.8809C117.174 24.875 117.018 23.8915 116.762 22.9862C116.506 22.0809 116.095 21.2762 115.561 20.6056ZM113.938 27.6468C113.804 28.2392 113.582 28.7533 113.27 29.2227C112.937 29.6586 112.548 30.0498 112.069 30.3292C111.591 30.6086 111.013 30.765 110.301 30.765C109.656 30.765 109.123 30.6309 108.633 30.3739C108.144 30.1168 107.733 29.7815 107.399 29.3456C107.043 28.9098 106.81 28.3956 106.632 27.8033C106.454 27.2109 106.376 26.5627 106.376 25.8474C106.376 24.3497 106.71 23.1427 107.354 22.2374C108.022 21.3321 109 20.8962 110.279 20.8962C110.891 20.8962 111.458 21.0303 111.947 21.3097C112.414 21.5892 112.814 21.958 113.148 22.4162C113.482 22.8856 113.737 23.3997 113.893 23.9921C114.071 24.5845 114.149 25.1992 114.149 25.825C114.149 26.4398 114.071 27.0321 113.938 27.6468Z" fill="#878787"/>
<path d="M22.7962 13.4637L18.4594 -0.00390625L14.0892 13.4637L0 13.4414L11.3981 21.7679L7.0279 35.2355L18.426 26.8979L29.8241 35.2355L25.4873 21.7679L36.8854 13.4637H22.7962Z" fill="#878787"/>
</g>
</svg>
