<svg width="139" height="40" viewBox="0 0 139 40" fill="none" xmlns="http://www.w3.org/2000/svg">
<g opacity="0.5">
<path d="M54.2404 23.9761C55.8248 23.9761 56.9508 24.4461 57.7878 24.8161L58.6249 22.3761C57.1302 21.7161 55.7351 21.3461 53.9613 21.3461C48.9191 21.3461 46.0293 25.2761 46.0293 30.0561C46.0293 35.1161 48.9191 38.6761 53.9613 38.6761C55.7351 38.6761 57.1302 38.2961 58.6249 37.6461L57.7878 35.2161C56.9508 35.5861 55.8248 36.0561 54.2404 36.0561C50.9719 36.0561 49.1084 33.3361 49.1084 29.9661C49.0985 26.6961 51.0616 23.9761 54.2404 23.9761Z" fill="#878787"/>
<path d="M87.5633 18.4459H90.4531V4.21594H95.7743V1.58594H82.1523V4.21594H87.5633V18.4459Z" fill="#878787"/>
<path d="M109.405 16.1061C107.541 16.1061 105.857 15.4461 104.831 14.7961L103.615 17.1361C104.921 17.8861 106.694 18.6361 109.315 18.6361C113.231 18.6361 115.852 16.6661 115.852 13.4861C115.852 7.77613 107.173 9.17613 107.173 5.71613C107.173 4.40613 108.568 3.93613 110.162 3.93613C111.936 3.93613 113.331 4.40613 114.826 5.15613L114.915 2.34613C113.889 1.87613 112.016 1.40613 110.152 1.40613C106.605 1.40613 104.173 3.09613 104.183 6.18613C104.183 11.8961 112.773 10.3061 112.773 13.9661C112.763 15.4561 111.179 16.1061 109.405 16.1061Z" fill="#878787"/>
<path d="M121.351 11.1461H129.472V18.4461H132.362V1.49609H129.472V8.42609H121.351V1.49609H118.461V18.4461H121.351V11.1461Z" fill="#878787"/>
<path d="M79.8996 1.49609H77.0098V18.4561H79.8996V1.49609Z" fill="#878787"/>
<path d="M100.903 1.49609H98.0137V18.4561H100.903V1.49609Z" fill="#878787"/>
<path d="M87.7515 32.1259C87.7515 35.0259 86.2568 36.0559 83.8353 36.0559C81.4039 36.0559 79.9191 35.0259 79.9191 32.1259V21.5459H77.0293V32.0359C77.0293 36.6259 79.6401 38.6859 83.8453 38.6859C88.0405 38.6859 90.6612 36.6259 90.6612 32.0359V21.5459H87.7714V32.1259H87.7515Z" fill="#878787"/>
<path d="M104.082 30.8159C104.082 31.5659 104.082 32.5059 104.171 33.0659H104.082L96.339 21.5459H93.1602V38.4059H96.05V28.3759C96.05 27.6259 96.05 26.6859 95.9603 26.1259H96.05L104.45 38.3959H106.971V21.5459H104.082V30.8159Z" fill="#878787"/>
<path d="M117.338 23.9761C118.922 23.9761 120.048 24.4461 120.885 24.8161L121.723 22.3761C120.327 21.7161 118.922 21.3461 117.059 21.3461C112.017 21.3461 109.127 25.2761 109.127 30.0561C109.127 35.1161 112.017 38.6761 117.059 38.6761C118.922 38.6761 120.327 38.2961 121.723 37.6461L120.885 35.2161C120.048 35.5861 118.922 36.0561 117.338 36.0561C114.07 36.0561 112.206 33.3361 112.206 29.9661C112.206 26.6961 114.169 23.9761 117.338 23.9761Z" fill="#878787"/>
<path d="M126.851 21.5459H123.961V38.4059H126.851V21.5459Z" fill="#878787"/>
<path d="M132.362 35.7759V21.5459H129.473V38.4059H138.999V35.7759H132.362Z" fill="#878787"/>
<path d="M70.7616 10.7659C72.625 10.2059 73.8407 8.70594 73.8407 6.36594C73.8407 3.83594 72.2563 1.58594 67.8618 1.58594H62.1719V18.4459H65.0617V11.8959H67.7721C68.7985 11.8959 69.4562 13.2959 71.8777 18.4559H75.1461C72.346 12.8259 71.509 11.2359 70.7616 10.7659ZM67.9615 9.26594H65.0717V4.11594H68.0611C70.1139 4.11594 70.9509 5.23594 70.9509 6.64594C70.941 8.23594 70.0142 9.26594 67.9615 9.26594Z" fill="#878787"/>
<path d="M57.1276 9.45609C58.433 8.61609 59.0907 7.48609 59.0907 5.89609C59.0907 4.49609 58.3433 2.89609 56.6692 2.05609C55.9218 1.77609 55.0848 1.49609 53.7794 1.49609H47.6211V18.4561H53.311C54.7161 18.4561 55.6428 18.3661 56.4799 18.0861C58.8116 17.3361 60.2167 15.6461 60.2167 13.3061C60.2067 11.2361 59.0907 9.92609 57.1276 9.45609ZM50.4113 4.11609H53.5801C54.2378 4.11609 54.6962 4.20609 55.1645 4.39609C55.8222 4.76609 56.2806 5.51609 56.2806 6.36609C56.2905 7.10609 55.8919 7.78609 55.2542 8.14609C54.7858 8.42609 54.2278 8.51609 53.3908 8.51609H50.4013V4.11609H50.4113ZM56.0115 15.4561C55.5432 15.6461 54.9851 15.8261 53.8691 15.8261H50.4113V11.1461H54.1481C55.0848 11.1461 55.6428 11.2361 56.0115 11.4261C56.8486 11.8061 57.2272 12.4561 57.2272 13.3961C57.2272 14.3361 56.8486 15.0761 56.0115 15.4561Z" fill="#878787"/>
<path d="M67.1137 21.3561C62.3505 21.3561 59.1816 25.0061 59.1816 30.0661C59.1816 35.1261 62.3604 38.6861 67.1137 38.6861C71.8669 38.6861 75.0457 35.0361 75.0457 29.9761C75.0557 24.9161 71.9765 21.3561 67.1137 21.3561ZM67.1137 36.0661C64.3135 36.0661 62.1711 33.7261 62.1711 30.0661C62.1711 26.3161 64.3135 23.9761 67.1137 23.9761C69.9138 23.9761 72.0563 26.3161 72.0563 29.9761C72.0662 33.7161 69.9138 36.0661 67.1137 36.0661Z" fill="#878787"/>
<path d="M9.6161 20.6963C4.38454 20.6963 0 25.0063 0 30.3463C0 35.6863 4.38454 39.9963 9.6161 39.9963C14.9373 39.9963 19.3219 35.6863 19.3219 30.3463C19.3219 25.0063 14.9373 20.6963 9.6161 20.6963Z" fill="#878787"/>
<path d="M30.2431 -0.00388888C24.9218 -0.00388888 20.627 4.30611 20.627 9.64611C20.627 14.9861 24.9218 19.2961 30.2431 19.2961C30.253 19.2961 30.263 19.2961 30.2729 19.2961C35.5743 19.2861 39.8691 14.9661 39.8592 9.64611C39.8592 9.63611 39.8592 9.62611 39.8592 9.61611C39.8492 4.29611 35.5444 -0.0138889 30.2431 -0.00388888Z" fill="#878787"/>
<path d="M30.2431 20.6963C30.2331 20.6963 30.2231 20.6963 30.2132 20.6963C24.9119 20.7063 20.617 25.0263 20.627 30.3463C20.627 30.3563 20.627 30.3663 20.627 30.3763C20.6369 35.6963 24.9418 40.0063 30.2431 39.9963C30.253 39.9963 30.263 39.9963 30.273 39.9963C35.5743 39.9863 39.8691 35.6663 39.8592 30.3463C39.8592 30.3363 39.8592 30.3263 39.8592 30.3163C39.8492 24.9963 35.5444 20.6863 30.2431 20.6963Z" fill="#878787"/>
<path d="M9.6161 -0.00390625C4.38454 -0.00390625 0 4.30609 0 9.64609C0 14.9861 4.38454 19.2961 9.6161 19.2961C14.9373 19.2961 19.3219 14.9861 19.3219 9.64609C19.3219 4.30609 14.9373 -0.00390625 9.6161 -0.00390625Z" fill="#878787"/>
</g>
</svg>
