<svg width="138" height="40" viewBox="0 0 138 40" fill="none" xmlns="http://www.w3.org/2000/svg">
<g opacity="0.5">
<path d="M35.0231 25.1429C35.0231 27.3429 33.236 29.1296 31.0354 29.1296C28.8347 29.1296 27.0476 27.3429 27.0476 25.1429V13.8496H22.4863V25.1429C22.4863 29.8496 26.3274 33.6896 31.0354 33.6896C35.7433 33.6896 39.5844 29.8629 39.5844 25.1429V13.8496H35.0231V25.1429Z" fill="#878787"/>
<path d="M14.9641 18.1425H4.81466V7.44919H0V33.6891H4.81466V22.7692H14.9641V33.6891H19.7788V7.44919H14.9641V18.1425Z" fill="#878787"/>
<path d="M52.3205 13.9825C50.0532 13.9825 48.4794 14.6359 46.9457 16.1425V7.44922H42.3711V23.5425C42.3711 29.5692 46.7323 33.6892 51.6136 33.6892C57.0552 33.6892 61.8165 29.4892 61.8165 23.8358C61.8298 18.2492 57.4286 13.9825 52.3205 13.9825ZM52.4272 29.4492C49.3197 29.4492 46.959 26.8625 46.959 23.8358C46.959 20.8092 49.333 18.2092 52.4272 18.2092C55.0546 18.2092 57.4286 20.7959 57.4286 23.8358C57.4286 26.8625 55.0546 29.4492 52.4272 29.4492Z" fill="#878787"/>
<path d="M136.385 29.4492C133.691 29.4492 132.917 28.2758 132.917 26.4892V18.5692H137.118V14.5559H132.917V9.27588L128.289 11.3559V27.4892C128.289 31.6092 131.13 33.6892 135.038 33.6892C135.624 33.6892 136.425 33.6492 136.865 33.5425L137.998 29.3825C137.478 29.4092 136.891 29.4492 136.385 29.4492Z" fill="#878787"/>
<path d="M69.5131 15.1295C69.5131 12.8229 71.0469 12.1029 72.7273 12.1029C74.0744 12.1029 75.8615 13.1295 77.0352 14.3695L80.0227 10.8629C78.5289 8.84955 75.5014 7.46289 73.0207 7.46289C68.0594 7.46289 64.485 10.3429 64.485 15.1295C64.485 23.9962 75.3947 21.1829 75.3947 26.1562C75.3947 27.6895 73.901 29.0362 72.1805 29.0362C69.4731 29.0362 68.6062 27.7162 67.3658 26.3295L64.0449 29.7562C66.1655 32.3428 68.7929 33.6628 71.9271 33.6628C76.6351 33.6628 80.4361 30.7428 80.4361 26.1828C80.4228 16.3429 69.5131 19.3962 69.5131 15.1295Z" fill="#878787"/>
<path d="M102.684 23.5691C102.684 17.9158 97.9223 13.7158 92.4808 13.7158C87.5861 13.7158 83.2383 17.8358 83.2383 23.8625V39.9958H87.8129V31.2758C89.3333 32.7691 90.9204 33.4358 93.1877 33.4358C98.2958 33.4224 102.684 29.1558 102.684 23.5691ZM93.2944 29.1958C90.1869 29.1958 87.8262 26.5958 87.8262 23.5691C87.8262 20.5425 90.2002 17.9425 93.2944 17.9425C95.9218 17.9425 98.2958 20.5291 98.2958 23.5691C98.2958 26.5958 95.9218 29.1958 93.2944 29.1958Z" fill="#878787"/>
<path d="M120.649 15.1827C119.502 14.5161 118.302 14.0894 116.955 13.9027V9.10274C118.302 8.52941 119.142 7.26274 119.142 5.78275C119.142 3.76942 117.528 2.14276 115.514 2.14276C113.5 2.14276 111.86 3.76942 111.86 5.78275C111.86 7.26274 112.647 8.52941 113.994 9.10274V13.9027C112.914 14.0627 111.793 14.3961 110.78 14.9161C108.686 13.3294 101.857 8.12941 97.8561 5.10275C97.9495 4.75608 98.0295 4.40942 98.0295 4.03608C98.0295 1.80942 96.229 -0.00390625 93.9884 -0.00390625C91.7478 -0.00390625 89.9473 1.80942 89.9473 4.03608C89.9473 6.26275 91.7611 8.07608 93.9884 8.07608C94.7486 8.07608 95.4554 7.84941 96.0556 7.48941L96.8959 8.12941L108.499 16.4894C107.886 17.0494 107.312 17.6894 106.859 18.4094C105.938 19.8627 105.365 21.476 105.365 23.236V23.6094C105.365 24.8494 105.605 26.0094 106.005 27.1027C106.352 28.0627 106.872 28.9294 107.512 29.716L103.658 33.5694C102.524 33.1427 101.23 33.4227 100.377 34.2894C99.79 34.876 99.4566 35.6627 99.4699 36.5027C99.4699 37.3427 99.79 38.116 100.39 38.7027C100.977 39.2893 101.764 39.6227 102.591 39.6227C103.418 39.6227 104.218 39.2893 104.805 38.7027C105.392 38.116 105.725 37.3293 105.725 36.5027C105.725 36.1827 105.672 35.8627 105.578 35.5693L109.553 31.596C110.099 31.9694 110.686 32.2894 111.327 32.5694C112.58 33.1027 113.954 33.436 115.461 33.436H115.741C117.408 33.436 118.982 33.0494 120.462 32.2494C122.023 31.396 123.236 30.2494 124.157 28.7694C125.077 27.2894 125.597 25.6494 125.597 23.8494V23.756C125.597 21.9827 125.184 20.3427 124.33 18.8494C123.437 17.3027 122.196 16.0894 120.649 15.1827ZM119.449 27.156C118.368 28.356 117.128 29.0894 115.728 29.0894H115.501C114.701 29.0894 113.914 28.8627 113.154 28.4627C112.287 28.0227 111.633 27.3827 111.086 26.5827C110.526 25.796 110.233 24.9427 110.233 24.0227V23.7427C110.233 22.8494 110.406 21.996 110.833 21.196C111.3 20.316 111.927 19.6361 112.754 19.1027C113.567 18.5694 114.447 18.3027 115.408 18.3027H115.501C116.381 18.3027 117.208 18.4761 117.995 18.8761C118.795 19.3027 119.449 19.8894 119.956 20.6627C120.449 21.436 120.742 22.2627 120.836 23.1694C120.849 23.356 120.862 23.556 120.862 23.7294C120.862 24.9827 120.382 26.1294 119.449 27.156Z" fill="#878787"/>
</g>
</svg>
