<svg width="93" height="96" viewBox="0 0 93 96" fill="none" xmlns="http://www.w3.org/2000/svg">
<g opacity="0.3">
<path fill-rule="evenodd" clip-rule="evenodd" d="M12.2947 67.4616C10.9378 69.1107 9.11454 69.9245 7.3124 70.9739C6.71876 71.338 5.99788 71.3808 5.36183 71.0596C3.92012 70.31 3.72933 68.2112 5.19224 67.3545C6.52795 66.5621 8.20286 65.834 9.22053 64.6132C11.0015 62.493 14.0333 65.3628 12.2947 67.4616ZM9.39012 42.8326C7.07914 42.8754 4.81059 43.6036 2.58443 44.1818C-0.0445717 44.8671 -1.10467 40.798 1.50312 40.1127C4.08972 39.4488 6.63391 38.6777 9.32652 38.6135C12.0403 38.5707 12.1039 42.7683 9.39012 42.8326ZM22.7472 14.4771C21.9415 12.9351 20.4786 11.6715 19.3761 10.3223C17.6588 8.20202 20.733 5.3536 22.4503 7.49526C23.8072 9.16575 25.3762 10.4936 26.3938 12.4425C26.7543 13.1278 26.733 13.9416 26.2878 14.5841C25.4185 15.8691 23.5104 15.9334 22.7472 14.4771ZM46.7685 7.98786C47.5106 5.91045 47.9135 3.70453 48.4223 1.54146C49.0584 -1.1142 53.0866 -0.0647847 52.4505 2.61228C51.9205 4.83961 51.4965 7.08836 50.7332 9.25143C49.8216 11.8214 45.8357 10.5793 46.7685 7.98786ZM69.9419 15.6121C72.1256 14.3486 73.9278 12.6138 75.4544 10.5792C77.0869 8.41617 80.5638 10.7077 78.9101 12.8922C77.002 15.4408 74.7758 17.6467 72.0196 19.2316C71.4047 19.5956 70.6839 19.617 70.0478 19.2744C68.6485 18.5248 68.4577 16.4688 69.9419 15.6121ZM82.8112 34.0732C84.9314 34.0946 88.0269 34.7157 89.8714 33.5378C92.1612 32.0601 94.3025 35.6794 92.0339 37.1358C89.2141 38.9562 85.9279 38.3351 82.79 38.2923C80.0762 38.2494 80.0974 34.0518 82.8112 34.0732ZM82.5356 60.8867C84.9102 61.5934 87.4544 62.4073 89.9562 62.0004C92.564 61.5721 93.5604 65.6626 90.8678 66.1123C87.5816 66.6692 84.5286 65.8982 81.3908 64.9559C78.783 64.1421 79.9278 60.0943 82.5356 60.8867ZM38.6695 82.7316C38.3091 84.5306 37.6731 86.2653 36.7614 87.8501C36.401 88.4712 35.8285 88.8567 35.1289 88.8782C33.4964 88.9424 32.3091 87.2291 33.1784 85.7299C33.8992 84.4878 34.3445 83.1385 34.6413 81.7465C35.1925 79.0266 39.242 80.0545 38.6695 82.7316ZM68.4366 93.9967C68.4578 93.9967 68.4577 94.0181 68.479 94.0181C71.4896 96.3739 75.4543 96.8023 78.5497 94.3608C81.5179 92.005 82.3237 88.1714 80.7548 84.7448C82.0693 81.7036 81.7935 80.5471 79.843 77.6987C78.6345 75.9426 77.3625 74.2078 76.1116 72.4945C74.9667 70.9525 73.8218 69.4105 72.6769 67.8685C72.0409 67.0119 71.2988 66.0695 70.7263 65.17C67.8641 60.6725 69.1362 54.8687 69.6662 49.9001C70.4719 42.3186 71.8288 34.3516 66.8888 27.7767C57.2421 14.9696 38.7331 15.7835 26.8391 24.7784C22.6411 27.9695 19.3973 32.4884 17.4255 37.3927C15.4114 42.4042 14.6693 48.0154 15.7082 53.3695C16.3019 56.4107 17.4679 59.2591 19.2065 61.8077C22.6623 66.8406 27.6447 70.3957 33.4328 72.1304C37.1431 73.2226 41.0865 73.137 44.7331 74.272C53.1078 76.8849 55.6309 87.0577 61.8005 92.2191C63.7723 93.8254 65.9985 94.3608 68.4366 93.9967ZM65.7015 74.8503C65.0019 75.3215 64.281 75.7498 63.5602 76.1567C63.4966 76.1995 63.4118 76.2424 63.3482 76.2852C58.6414 68.7894 53.2138 61.8076 48.3374 54.4189C49.1643 53.8193 49.9488 53.1768 50.7757 52.5557C51.5389 51.9775 52.281 51.3992 53.023 50.821C53.9559 52.9412 54.9735 55.04 55.9912 57.1174C58.0689 61.3151 60.274 65.4699 62.585 69.539C63.3906 70.9525 64.1962 72.3446 65.0443 73.7366C65.1715 74.0151 65.4259 74.4434 65.7015 74.8503ZM53.7015 43.9891C53.3623 43.2823 53.0229 42.5328 52.9381 42.0616C52.8745 41.7832 52.7261 40.8408 53.0866 40.6695C53.4682 40.4767 54.1043 40.8622 54.3587 41.1406C54.91 41.7617 54.7403 42.5113 54.3163 43.1538C54.1255 43.4322 53.9135 43.7107 53.7015 43.9891ZM42.507 53.1339C41.9982 53.3695 41.4681 53.5622 40.9381 53.7336C39.0724 54.269 37.1006 52.1916 36.6766 50.4355C37.1006 49.6859 38.0547 48.1011 38.6907 48.1439C38.9452 48.1653 39.2844 48.5722 39.4116 48.7649C39.4328 48.7863 39.454 48.8078 39.454 48.8292C40.5988 50.1785 41.5741 51.6348 42.507 53.1339ZM59.5955 78.2127C58.705 78.5554 57.7297 78.8338 56.8181 78.8338C56.7121 78.7909 56.5849 78.7481 56.4789 78.7267C53.129 74.4006 49.9912 71.0382 44.3727 69.8602C38.7119 68.6823 33.0299 68.4468 28.1323 64.9559C16.6199 56.7748 17.2347 39.2132 27.1571 30.0041C32.2666 25.271 39.1571 21.8229 46.196 22.0799C53.447 22.3369 64.1962 26.6202 65.85 34.6729C67.2281 41.3977 65.2563 48.5294 64.8746 55.2756C64.6202 59.666 64.6415 63.6709 67.1645 67.3974C68.0549 68.7252 68.8606 69.7746 69.539 71.2095C69.433 71.3808 69.2846 71.5736 69.1362 71.7663C66.486 67.2689 63.8782 62.7285 61.334 58.1668C59.4683 54.8687 57.6237 51.5491 55.864 48.1867C57.7933 46.0879 59.3834 43.3894 58.6414 40.4339C57.7297 36.7931 52.3022 30.6894 49.3552 36.2363C48.1467 38.5065 50.182 43.9462 51.242 46.6447C51.2208 46.6661 51.1785 46.6875 51.1573 46.709C49.5248 48.1867 47.8922 49.6645 46.0901 50.9709C44.2879 48.0797 41.553 43.3894 37.9275 43.0467C36.9734 42.9611 36.0405 43.1966 35.2136 43.6892C30.4857 46.4734 32.1606 53.8621 35.9769 56.6463C38.8179 58.7023 41.8921 58.1668 44.7544 56.6891C49.5671 63.9707 54.9523 70.8454 59.5955 78.2127ZM74.8606 91.5338C75.5603 91.1269 76.2175 90.6557 76.8324 90.1417C76.3447 90.7842 75.6451 91.2768 74.8606 91.5338ZM60.062 82.4746C62.5002 81.7465 64.8747 80.3758 66.9313 78.9837C68.7334 77.763 70.79 76.3495 72.1469 74.5291C73.9066 77.0134 75.6663 79.4977 77.1928 82.1534C76.1751 86.2439 70.7475 90.1846 66.6132 89.4778C63.4966 88.9638 61.7793 85.2159 60.062 82.4746Z" fill="#878787" fill-opacity="0.75"/>
</g>
</svg>
