<svg width="104" height="112" viewBox="0 0 104 112" fill="none" xmlns="http://www.w3.org/2000/svg">
<g opacity="0.3">
<path d="M33.8208 36.4785C27.5161 36.4785 27.4993 46.3152 33.8208 46.3152C40.1254 46.3152 40.1423 36.4785 33.8208 36.4785Z" fill="#FF7E84"/>
<path d="M38.1919 68.2156C44.4965 68.2156 44.5133 58.3789 38.1919 58.3789C31.8872 58.3789 31.8704 68.2156 38.1919 68.2156Z" fill="#FF7E84"/>
<path d="M57.0903 43.7842C50.7856 43.7842 50.7688 53.6209 57.0903 53.6209C63.395 53.6209 63.4118 43.7842 57.0903 43.7842Z" fill="#FF7E84"/>
<path d="M55.6411 20.4326C49.3364 20.4326 49.3196 30.2693 55.6411 30.2693C61.9458 30.2693 61.9626 20.4326 55.6411 20.4326Z" fill="#FF7E84"/>
<path d="M76.0004 30.6406C69.6958 30.6406 69.6789 40.4773 76.0004 40.4773C82.3051 40.4773 82.3219 30.6406 76.0004 30.6406Z" fill="#FF7E84"/>
<path d="M78.9106 55.46C72.6059 55.46 72.5891 65.2967 78.9106 65.2967C85.2153 65.2967 85.2321 55.46 78.9106 55.46Z" fill="#FF7E84"/>
<path d="M57.0903 67.1357C50.7856 67.1357 50.7688 76.9724 57.0903 76.9724C63.395 76.9724 63.4118 67.1357 57.0903 67.1357Z" fill="#FF7E84"/>
<path d="M47.4743 81.714C47.138 81.4609 46.8186 81.2078 46.4823 80.9378C45.7258 80.4991 44.902 80.2629 44.0109 80.2629C43.5233 80.2629 43.0358 80.2629 42.565 80.2629C41.8925 80.2292 41.2536 80.381 40.682 80.6847C40.0768 80.8872 39.5556 81.2247 39.1016 81.6971C38.6309 82.1358 38.2946 82.6757 38.0929 83.2831C37.7903 83.8737 37.639 84.4979 37.6726 85.1728C37.723 85.6115 37.7903 86.0502 37.8407 86.472C38.0761 87.2988 38.4964 88.0243 39.1016 88.6486C39.4379 88.9017 39.7573 89.1548 40.0936 89.4247C40.8501 89.8634 41.674 90.0996 42.565 90.0996C43.0526 90.0996 43.5401 90.0996 44.0109 90.0996C44.6834 90.1334 45.3223 89.9815 45.8939 89.6778C46.4991 89.4753 47.0203 89.1379 47.4743 88.6655C47.945 88.2268 48.2813 87.6869 48.483 87.0794C48.7856 86.4889 48.937 85.8646 48.9033 85.1897C48.8529 84.751 48.7856 84.3123 48.7352 83.8905C48.4998 83.0469 48.0795 82.3214 47.4743 81.714Z" fill="#FF7E84"/>
<path d="M17.8325 80.2627C11.5278 80.2627 11.511 90.0994 17.8325 90.0994C24.1372 90.0994 24.154 80.2627 17.8325 80.2627Z" fill="#FF7E84"/>
<path d="M6.19966 39.3975C-0.105021 39.3975 -0.121833 49.2342 6.19966 49.2342C12.5043 49.2342 12.5212 39.3975 6.19966 39.3975Z" fill="#FF7E84"/>
<path d="M4.73482 61.2979C-1.56986 61.2979 -1.58668 71.1345 4.73482 71.1345C11.0563 71.1345 11.0563 61.2979 4.73482 61.2979Z" fill="#FF7E84"/>
<path d="M12.0161 18.9648C5.71139 18.9648 5.69457 28.8015 12.0161 28.8015C18.3208 28.8015 18.3376 18.9648 12.0161 18.9648Z" fill="#FF7E84"/>
<path d="M29.4653 7.28906C23.1606 7.28906 23.1438 17.1258 29.4653 17.1258C35.77 17.1258 35.7868 7.28906 29.4653 7.28906Z" fill="#FF7E84"/>
<path d="M51.2715 9.8367C57.5762 9.8367 57.593 0 51.2715 0C44.9668 0 44.9668 9.8367 51.2715 9.8367Z" fill="#FF7E84"/>
<path d="M76.0004 17.1258C82.3051 17.1258 82.3219 7.28906 76.0004 7.28906C69.6958 7.28906 69.6789 17.1258 76.0004 17.1258Z" fill="#FF7E84"/>
<path d="M94.9004 40.4773C101.205 40.4773 101.222 30.6406 94.9004 30.6406C88.5957 30.6406 88.5957 40.4773 94.9004 40.4773Z" fill="#FF7E84"/>
<path d="M99.2739 56.9111C92.9692 56.9111 92.9524 66.7478 99.2739 66.7478C105.579 66.7478 105.579 56.9111 99.2739 56.9111Z" fill="#FF7E84"/>
<path d="M90.5473 80.2627C84.2426 80.2627 84.2258 90.0994 90.5473 90.0994C96.852 90.0994 96.852 80.2627 90.5473 80.2627Z" fill="#FF7E84"/>
<path d="M67.2778 91.9385C60.9731 91.9385 60.9563 101.775 67.2778 101.775C73.5825 101.775 73.5993 91.9385 67.2778 91.9385Z" fill="#FF7E84"/>
<path d="M35.2817 102.163C28.977 102.163 28.9602 112 35.2817 112C41.5864 112 41.6032 102.163 35.2817 102.163Z" fill="#FF7E84"/>
</g>
</svg>
