<svg width="147" height="64" viewBox="0 0 147 64" fill="none" xmlns="http://www.w3.org/2000/svg">
<path d="M1.23544 62.2744C14.8592 35.8272 33.6748 10.4656 64.1616 2.83812C80.4402 -1.23463 99.2886 5.2367 96.0192 24.969C93.7924 38.4083 83.0153 58.219 67.0878 57.0804C49.4994 55.823 81.1593 30.6085 85.0447 28.537C103.231 18.8405 120.456 15.9387 140.646 15.2068C148.209 14.9326 144.621 12.2713 139.879 10.574C135.765 9.10127 131.046 7.53507 126.688 7.2064C125.358 7.10615 133.611 9.48276 134.93 9.79431C140.59 11.1305 147.071 12.8962 143.766 19.8963C143.235 21.0209 137.393 31.0527 135.699 30.5682C134.817 30.316 134.746 22.0653 134.481 20.9358C132.76 13.6003 129.899 10.0161 123.12 7.20092" stroke="#878787" stroke-opacity="0.2" stroke-width="2" stroke-linecap="round"/>
</svg>
