<svg width="24" height="24" viewBox="0 0 24 24" fill="none" xmlns="http://www.w3.org/2000/svg">
<path fill-rule="evenodd" clip-rule="evenodd" d="M18 14.7546C17.183 14.7546 16.443 15.0792 15.901 15.6015L7.966 12.1333C7.979 12.0241 8 11.9159 8 11.8038C8 11.6917 7.979 11.5835 7.966 11.4743L15.901 8.00608C16.443 8.52837 17.183 8.85296 18 8.85296C19.654 8.85296 21 7.52903 21 5.90214C21 4.27526 19.654 2.95132 18 2.95132C16.346 2.95132 15 4.27526 15 5.90214C15 6.01428 15.021 6.12247 15.034 6.23165L7.099 9.69985C6.557 9.17755 5.817 8.85296 5 8.85296C3.346 8.85296 2 10.1769 2 11.8038C2 13.4307 3.346 14.7546 5 14.7546C5.817 14.7546 6.557 14.43 7.099 13.9077L15.034 17.3759C15.021 17.4851 15 17.5933 15 17.7054C15 19.3323 16.346 20.6562 18 20.6562C19.654 20.6562 21 19.3323 21 17.7054C21 16.0785 19.654 14.7546 18 14.7546Z" fill="#231F20"/>
<mask id="mask0_1_10320" style="mask-type:luminance" maskUnits="userSpaceOnUse" x="2" y="2" width="19" height="19">
<path fill-rule="evenodd" clip-rule="evenodd" d="M18 14.7546C17.183 14.7546 16.443 15.0792 15.901 15.6015L7.966 12.1333C7.979 12.0241 8 11.9159 8 11.8038C8 11.6917 7.979 11.5835 7.966 11.4743L15.901 8.00608C16.443 8.52837 17.183 8.85296 18 8.85296C19.654 8.85296 21 7.52903 21 5.90214C21 4.27526 19.654 2.95132 18 2.95132C16.346 2.95132 15 4.27526 15 5.90214C15 6.01428 15.021 6.12247 15.034 6.23165L7.099 9.69985C6.557 9.17755 5.817 8.85296 5 8.85296C3.346 8.85296 2 10.1769 2 11.8038C2 13.4307 3.346 14.7546 5 14.7546C5.817 14.7546 6.557 14.43 7.099 13.9077L15.034 17.3759C15.021 17.4851 15 17.5933 15 17.7054C15 19.3323 16.346 20.6562 18 20.6562C19.654 20.6562 21 19.3323 21 17.7054C21 16.0785 19.654 14.7546 18 14.7546Z" fill="white"/>
</mask>
<g mask="url(#mask0_1_10320)">
<rect y="1.14441e-05" width="24" height="23.6066" fill="#FBFBFB"/>
</g>
</svg>
