<svg width="100" height="80" viewBox="0 0 100 80" fill="none" xmlns="http://www.w3.org/2000/svg">
<path d="M0 0H100V70C100 75.5229 95.5229 80 90 80H10C4.47716 80 0 75.5229 0 70V0Z" fill="url(#paint0_linear_1_11423)"/>
<g clip-path="url(#clip0_1_11423)">
<path d="M73.849 64.0373L66.518 62.4476L64.2459 69.5152C64.0825 70.0234 63.384 70.0979 63.1141 69.6359L54.0449 54.1127C58.5123 53.159 62.4872 50.8985 65.5392 47.7568L74.5216 63.1333C74.7911 63.5946 74.3766 64.1518 73.849 64.0373Z" fill="#FD646F"/>
<path d="M73.849 64.0375L67.0728 62.5679C66.9212 62.535 66.7626 62.5592 66.6282 62.6357C66.4938 62.7122 66.3933 62.8354 66.3464 62.9812L64.2459 69.5152C64.0825 70.0234 63.384 70.0979 63.1141 69.6359L55.3446 56.3363L54.0449 54.1127C58.5123 53.159 62.4872 50.8985 65.5392 47.7568L66.8289 49.9631L74.5217 63.1333C74.791 63.5948 74.3765 64.1519 73.849 64.0375Z" fill="#FD646F"/>
<path d="M73.8497 64.0371L67.074 62.5678C66.7593 62.5004 66.4447 62.6793 66.3477 62.9808L67.077 60.7478C67.1244 60.6024 67.2253 60.4798 67.3598 60.4038C67.4942 60.3279 67.6526 60.3042 67.8039 60.3374L73.6345 61.6144L74.5225 63.1339C74.7924 63.5947 74.377 64.1523 73.8497 64.0371Z" fill="#FC4755"/>
<path d="M45.8102 53.9264L36.5976 69.6925C36.3277 70.1545 35.6293 70.08 35.4658 69.5718L33.3652 63.0377C33.3183 62.8919 33.2178 62.7687 33.0834 62.6922C32.949 62.6157 32.7904 62.5915 32.6388 62.6244L25.8627 64.0938C25.3351 64.2083 24.9206 63.651 25.1901 63.1898L33.7584 48.5225C36.9572 51.5106 41.2719 53.1902 45.8102 53.9264Z" fill="#FD646F"/>
<path d="M34.9707 50.7043L27.3356 63.7737L25.8628 64.0934C25.3352 64.208 24.9206 63.6508 25.1901 63.1894L32.4834 50.7043L34.4557 47.3193C34.9868 47.8147 35.5414 48.2855 36.1198 48.728L34.9707 50.7043ZM37.496 68.1532L36.5969 69.6924C36.327 70.1544 35.6293 70.0808 35.4651 69.5723L33.3645 63.0382C33.3177 62.8923 33.2172 62.7689 33.0828 62.6923C32.9485 62.6157 32.7898 62.5913 32.6381 62.624L34.9614 62.1205C35.1129 62.0876 35.2715 62.1118 35.4059 62.1883C35.5403 62.2647 35.6408 62.3879 35.6877 62.5337L37.496 68.1532Z" fill="#FC4755"/>
<path d="M33.9645 48.1493L40.0237 50.8416L45.8091 53.9265L44.2578 56.5795C39.9322 55.7142 35.9188 53.7304 32.6018 50.8087C32.562 50.7742 32.5222 50.7398 32.4824 50.7041L33.9645 48.1493ZM66.8285 49.9631L65.5388 47.7568L58.7141 50.7249L54.0445 54.1127L54.5693 55.0106L55.8582 57.2162L63.1137 69.6358C63.3836 70.0978 64.0821 70.0233 64.2455 69.5151L64.7075 68.0779L57.4959 55.7008C60.9871 54.5038 64.1652 52.5563 66.8285 49.9631Z" fill="#FC4755"/>
<path d="M72.4291 32.3077C72.4291 38.3034 70.035 43.7486 66.1384 47.7569C63.0864 50.8985 59.1115 53.159 54.6441 54.1128C53.0712 54.4479 51.4664 54.6164 49.8571 54.6154C48.6035 54.6154 47.3747 54.5146 46.177 54.3205C41.8713 53.6223 37.9748 51.7196 34.8556 48.9737C34.6867 48.8263 34.5204 48.6759 34.3569 48.5226C33.7747 47.9786 33.2218 47.4051 32.7002 46.8043C32.2003 46.2267 31.7302 45.6231 31.2911 44.9963C29.9568 43.0945 28.9313 40.9995 28.2515 38.7866C27.6234 36.7365 27.2852 34.562 27.2852 32.3078C27.2852 19.988 37.3915 10 49.8571 10C52.1368 10 54.3382 10.3343 56.4114 10.9563C58.6787 11.6336 60.793 12.655 62.6959 13.9592C63.3302 14.3931 63.9408 14.8577 64.5241 15.353C65.3049 16.0122 66.0391 16.723 66.7217 17.4806C70.2725 21.4225 72.4291 26.6168 72.4291 32.3077Z" fill="#FAA515"/>
<path d="M49.8566 48.2855C58.7855 48.2855 66.0237 41.1319 66.0237 32.3075C66.0237 23.4832 58.7855 16.3296 49.8566 16.3296C40.9277 16.3296 33.6895 23.4832 33.6895 32.3075C33.6895 41.1319 40.9277 48.2855 49.8566 48.2855Z" fill="#FAD207"/>
<path d="M66.0232 32.3077C66.0232 41.1317 58.7849 48.2853 49.8563 48.2853C40.9278 48.2853 33.6895 41.1317 33.6895 32.3077C33.6895 31.6414 33.7305 30.985 33.8113 30.3411C34.7914 38.2383 41.6019 44.352 49.8563 44.352C58.1108 44.352 64.9213 38.2383 65.9014 30.3411C65.9822 30.9852 66.0232 31.6415 66.0232 32.3077Z" fill="#FAA515"/>
<path fill-rule="evenodd" clip-rule="evenodd" d="M49.8563 16.3301C40.9278 16.3301 33.6895 23.4837 33.6895 32.3078C33.6895 41.1318 40.9278 48.2855 49.8563 48.2855C58.7849 48.2855 66.0232 41.1318 66.0232 32.3078C66.0232 23.4837 58.7849 16.3301 49.8563 16.3301ZM49.8563 46.4417C41.97 46.4417 35.555 40.1017 35.555 32.3078C35.555 24.5138 41.97 18.1739 49.8563 18.1739C57.7427 18.1739 64.1577 24.5138 64.1577 32.3078C64.1577 40.1017 57.7427 46.4417 49.8563 46.4417Z" fill="#FAF063"/>
<path d="M50.4153 23.472L52.6362 27.9421C52.6808 28.0318 52.7469 28.1094 52.8288 28.1681C52.9108 28.2269 53.006 28.265 53.1063 28.2792L58.0974 28.9858C58.6082 29.0581 58.8126 29.6766 58.4428 30.0312L54.8228 33.5045C54.7504 33.5739 54.6962 33.6597 54.6651 33.7544C54.6339 33.8491 54.6266 33.9499 54.6438 34.048L55.5064 38.9589C55.5946 39.4606 55.0592 39.8432 54.6025 39.6049L50.1479 37.279C50.0583 37.2321 49.9583 37.2077 49.8568 37.2077C49.7553 37.2077 49.6553 37.2321 49.5656 37.279L45.1111 39.6049C44.6544 39.8433 44.119 39.4608 44.2072 38.9589L45.0698 34.048C45.087 33.9499 45.0797 33.8491 45.0485 33.7544C45.0173 33.6597 44.9632 33.5739 44.8908 33.5045L41.2708 30.0312C40.901 29.6764 41.1054 29.0581 41.6161 28.9858L46.6072 28.2792C46.7076 28.265 46.8028 28.2269 46.8848 28.1681C46.9667 28.1093 47.0328 28.0318 47.0774 27.9421L49.2982 23.472C49.5257 23.0142 50.1879 23.0142 50.4153 23.472Z" fill="#FAA515"/>
</g>
<defs>
<linearGradient id="paint0_linear_1_11423" x1="1.93788e-07" y1="40" x2="89.2127" y2="60.666" gradientUnits="userSpaceOnUse">
<stop stop-color="#0063F4"/>
<stop offset="1" stop-color="#00F0AA"/>
</linearGradient>
<clipPath id="clip0_1_11423">
<rect width="49.7143" height="60" fill="white" transform="translate(25 10)"/>
</clipPath>
</defs>
</svg>
