<svg width="49" height="50" viewBox="0 0 49 50" fill="none" xmlns="http://www.w3.org/2000/svg">
<path opacity="0.6" d="M47.5433 35.0224L34.925 29.2938C34.5426 29.1231 34.0879 29.1231 33.7055 29.2938L21.0872 35.0224C20.5394 35.2678 20.1777 35.8331 20.1777 36.4519C20.1777 37.0706 20.5394 37.636 21.0872 37.8814L33.7055 43.61C33.9019 43.6953 34.1086 43.738 34.3152 43.738C34.5219 43.738 34.7286 43.6953 34.925 43.61L47.5433 37.892C48.091 37.6467 48.4527 37.0813 48.4527 36.4626C48.4527 35.8438 48.091 35.2784 47.5433 35.0224Z" fill="#8A47CB"/>
<path opacity="0.6" d="M34.3052 46.8743C33.6748 46.8743 33.065 46.7462 32.4863 46.4796L24.2188 42.7245V44.154C24.2188 45.4234 24.8595 46.6182 25.8929 47.269C28.8072 49.0932 31.5562 49.9999 34.3052 49.9999C37.0541 49.9999 39.8134 49.0825 42.7174 47.269C43.7508 46.6182 44.3916 45.4234 44.3916 44.154V42.7245L36.1344 46.4796C35.5556 46.7462 34.9356 46.8743 34.3052 46.8743Z" fill="#8A47CB"/>
<path d="M18.1651 20.8342C23.725 20.8342 28.2515 16.1617 28.2515 10.4118C28.2515 4.66183 23.725 0 18.1651 0C12.6052 0 8.06836 4.6725 8.06836 10.4224C8.06836 16.1724 12.5948 20.8342 18.1651 20.8342Z" fill="#8A47CB"/>
<path d="M16.1424 36.4619C16.1424 34.1896 17.4342 32.1307 19.4494 31.2133L31.117 25.9007C29.9492 25.314 28.6367 25.0046 27.2416 25.0046H9.08397C4.0821 25.0046 0 29.2078 0 34.3816V42.7132C0 43.2893 0.444381 43.7586 1.01277 43.7586H20.1832V42.0305L19.4597 41.6998C17.4342 40.7717 16.1424 38.7128 16.1424 36.4619Z" fill="#8A47CB"/>
</svg>
