<svg width="37" height="48" viewBox="0 0 37 48" fill="none" xmlns="http://www.w3.org/2000/svg">
<g clip-path="url(#clip0_1_10394)">
<path d="M9.87672 10.3125H26.6852C29.1908 10.3125 30.4457 7.28306 28.6739 5.51128L26.6145 3.45187C24.3886 1.22588 21.429 0 18.2809 0C15.1329 0 12.1734 1.22588 9.9474 3.45187L7.888 5.51128C6.11622 7.28306 7.37106 10.3125 9.87672 10.3125ZM22.3044 13.5895C22.5207 13.4453 22.7295 13.2902 22.9302 13.125H13.6318C13.8325 13.2902 14.0413 13.4453 14.2576 13.5895C15.5202 14.4332 17.1371 15 18.2809 15C19.4248 15 21.0417 14.4332 22.3044 13.5895Z" fill="#8A47CB"/>
<path d="M26.25 17.3437V13.6288C24.5492 16.139 20.8892 17.8125 18.2812 17.8125C15.6733 17.8125 12.0133 16.139 10.3125 13.6288V17.3437C10.3125 21.7377 13.8873 25.3125 18.2812 25.3125C22.6752 25.3125 26.25 21.7377 26.25 17.3437ZM30.9375 44.0625V48H35.1562C35.9329 48 36.5625 47.3703 36.5625 46.5937V44.0625H30.9375ZM0 46.5937C0 47.3703 0.629625 48 1.40625 48H5.625V44.0625H0V46.5937Z" fill="#8A47CB"/>
<path d="M24.3748 29.072C24.3704 31.9439 22.3687 34.3546 19.6876 34.9906V41.7187C19.6876 42.4953 19.058 43.125 18.2814 43.125C17.5047 43.125 16.8751 42.4953 16.8751 41.7187V34.9906C14.194 34.3546 12.1923 31.9439 12.1879 29.072C5.58114 29.3138 0.251641 34.6432 0.00976562 41.25H7.03126C7.80789 41.25 8.43751 41.8796 8.43751 42.6562V48H28.125V42.6562C28.125 41.8796 28.7546 41.25 29.5313 41.25H36.553C36.3111 34.6432 30.9815 29.3138 24.3748 29.072Z" fill="#8A47CB"/>
<path d="M15 27.6139V29.0625C15 30.8747 16.4691 32.3437 18.2812 32.3437C20.0934 32.3437 21.5625 30.8747 21.5625 29.0625V27.6138C20.5274 27.9453 19.425 28.1249 18.2812 28.1249C17.1375 28.1249 16.0351 27.9453 15 27.6139Z" fill="#8A47CB"/>
</g>
<defs>
<clipPath id="clip0_1_10394">
<rect width="36.5625" height="48" fill="white"/>
</clipPath>
</defs>
</svg>
