<svg width="30" height="16" viewBox="0 0 30 16" fill="none" xmlns="http://www.w3.org/2000/svg">
<g clip-path="url(#clip0_1_12782)">
<path d="M29.8017 7.51931L22.9837 0.701225C22.7388 0.415234 22.3084 0.381895 22.0224 0.626871C21.7364 0.871788 21.703 1.30221 21.948 1.5882C21.9709 1.61486 21.9957 1.63976 22.0224 1.66256L27.6745 7.32156H0.681785C0.305268 7.32156 0 7.62682 0 8.0034C0 8.37998 0.305268 8.68519 0.681785 8.68519H27.6745L22.0224 14.3373C21.7364 14.5822 21.703 15.0127 21.948 15.2987C22.193 15.5847 22.6233 15.618 22.9093 15.373C22.936 15.3502 22.9609 15.3253 22.9837 15.2987L29.8018 8.48058C30.0661 8.21474 30.0661 7.78526 29.8017 7.51931Z" fill="#FBFBFB"/>
</g>
<defs>
<clipPath id="clip0_1_12782">
<rect width="30" height="15.1172" fill="white" transform="translate(0 0.441406)"/>
</clipPath>
</defs>
</svg>
