<svg width="141" height="40" viewBox="0 0 141 40" fill="none" xmlns="http://www.w3.org/2000/svg">
<path d="M125.786 18.9632C125.378 17.7817 124.461 17.0408 123.254 16.7204C121.34 16.1997 119.566 16.5101 117.961 17.7417L117.223 18.3124C115.658 16.2598 112.309 15.6791 109.428 17.9019L108.59 16.8506H105.789V30.1274H109.797V21.0459C109.976 20.9257 110.066 20.8657 110.185 20.8256C112.448 19.6741 113.993 20.5753 114.043 23.1085V23.3688V29.1762V30.1274H118.12V21.0058C118.439 20.8356 118.768 20.6854 119.117 20.5553C121.051 19.9345 122.188 20.6954 122.357 22.718C122.387 22.9783 122.387 23.2487 122.387 23.509V27.8245V30.1474H126.395C126.424 30.0273 126.434 29.9172 126.444 29.787C126.444 27.1136 126.484 24.4402 126.405 21.7768C126.375 20.8256 126.095 19.8744 125.786 18.9632Z" fill="#1CCA81"/>
<path d="M70.2911 12.345C70.2911 15.6392 70.3011 18.8432 70.2811 22.0373C70.2811 22.7081 70.2213 23.389 70.0917 24.0498C69.8624 25.1612 69.2543 26.0624 68.088 26.2426C67.141 26.3828 66.174 26.3828 65.2369 26.2426C64.2301 26.1024 63.5422 25.3915 63.303 24.4103C63.0936 23.6193 62.984 22.7982 62.964 21.9872C62.9242 19.1036 62.9541 16.2299 62.9541 13.3462V12.345H58.7173V13.2561C58.7173 15.9295 58.7074 18.6029 58.7273 21.2663C58.7273 22.4077 58.7871 23.5492 58.9067 24.6906C59.2457 27.6043 60.8407 29.5668 63.4425 30.1876C65.3167 30.6282 67.2805 30.6582 69.1746 30.2777C71.9858 29.7471 73.6705 28.0649 74.2786 25.2814C74.4182 24.6506 74.4979 24.0098 74.5079 23.359C74.5478 19.8745 74.5478 16.3701 74.5577 12.8756C74.5577 12.7054 74.5278 12.5352 74.5079 12.335H70.2911V12.345Z" fill="#1CCA81"/>
<path d="M85.5523 16.7106C84.3859 16.6305 83.2894 16.4903 82.1928 16.5304C79.4215 16.6305 77.1785 18.4328 76.4109 21.1062C75.9324 22.7483 75.9324 24.4905 76.4009 26.1426C77.1287 28.7659 79.0128 30.2678 81.7043 30.458C83.399 30.5782 84.9542 30.2478 86.3498 29.2365L87.0875 30.1577H89.5797V11.2637H85.5523V16.7106V16.7106ZM85.5423 26.3128C84.3261 27.1038 83.0202 27.274 81.7342 26.6232C80.4383 25.9623 80.219 24.6907 80.199 23.3891C80.199 22.9485 80.2589 22.5079 80.3885 22.0874C80.9168 20.195 82.781 19.374 84.8345 20.1049C85.0838 20.185 85.3031 20.3152 85.5423 20.4253V26.3128V26.3128Z" fill="#1CCA81"/>
<path d="M104.038 24.1097C104.088 22.6278 103.898 21.2461 103.37 19.9444C102.622 18.052 101.227 16.9006 99.2229 16.5701C98.4952 16.47 97.7675 16.45 97.0397 16.5201C94.4279 16.6903 92.4043 18.3524 91.6965 20.8656C91.1881 22.5878 91.218 24.4301 91.7463 26.1523C92.3444 28.1148 93.6603 29.3964 95.5943 30.0272C97.0098 30.4778 98.4752 30.5178 99.9307 30.3476C101.017 30.2175 102.044 29.9071 102.911 29.1561L103.44 26.0321C102.822 26.2925 102.273 26.5628 101.695 26.743C100.3 27.1736 98.884 27.3138 97.4684 26.8732C96.2123 26.4827 95.4647 25.2912 95.7039 24.0997H104.038V24.1097ZM95.6042 22.0972C95.8136 20.4851 96.7706 19.624 98.236 19.604C99.3824 19.604 100.569 20.405 100.688 22.0972H95.6042Z" fill="#1CCA81"/>
<path d="M136.986 16.8303L134.095 25.6615C133.526 24.0195 133.038 22.5776 132.549 21.1358C132.041 19.714 131.553 18.2822 131.054 16.8403H126.578L131.882 29.6766L129.958 34.6029H134.015L141.003 16.8203H136.986V16.8303Z" fill="#1CCA81"/>
<path d="M47.3732 22.5678C46.0074 23.6792 44.7514 24.7505 43.4355 25.7418C42.9669 26.0822 42.4386 26.3225 41.8903 26.4827C40.8934 26.7831 40.1857 26.4227 39.8068 25.4414C39.5975 24.9208 39.4878 24.3801 39.448 23.8294C39.3084 20.9257 39.1987 18.022 39.0891 15.1183C39.0392 13.7866 39.0093 12.4449 38.9096 11.1132C38.8199 9.83161 38.5009 8.58002 37.8231 7.46861C36.5869 5.40599 33.4966 5.22576 32.2306 7.31841C31.9116 7.8591 31.5726 8.4098 31.2835 8.98052C29.5888 12.2847 27.924 15.6089 26.2393 18.9131C24.2555 22.7881 22.0325 26.5428 19.331 29.9772C18.8525 30.598 18.3241 31.1687 17.726 31.6894C16.769 32.4904 15.7522 32.2 15.3135 31.0285C15.1042 30.4278 14.9746 29.797 14.9347 29.1561C14.7952 26.9934 15.0643 24.8507 15.5528 22.748C16.5596 18.4525 17.6462 14.1771 18.673 9.89168C19.1914 7.70891 19.65 5.52614 19.2711 3.25325C18.9721 1.49102 18.055 0.389618 16.5995 0.0792239C15.0743 -0.241183 13.5989 0.419656 12.6917 1.89152C12.3428 2.49229 12.0238 3.11308 11.7447 3.74388C9.82073 8.00929 7.29863 11.9042 4.00893 15.2385C2.78277 16.5001 1.38714 17.5915 0.00147652 18.793C-0.0483674 20.7254 1.16782 22.0972 3.03199 22.1873C3.98899 22.2173 4.86624 21.937 5.69365 21.4864C6.18212 21.2261 6.6706 20.9257 7.25875 20.5953C7.08928 21.3562 6.95969 22.0071 6.81016 22.6579C6.16219 25.4314 5.67372 28.235 5.88306 31.1086C6.04256 33.2613 6.55097 35.2939 7.84691 37.0662C9.26248 38.9986 11.1865 39.9799 13.579 39.9999C15.7721 40.0099 17.706 39.2389 19.4705 37.9673C21.4244 36.5455 22.9596 34.7332 24.3353 32.7807C26.9471 29.086 28.9409 25.0509 30.7751 20.9357L31.3533 19.7342L31.4929 19.7742C31.4929 20.7354 31.453 21.6766 31.4929 22.6278C31.5826 24.8407 31.7919 27.0334 32.6692 29.1161C33.6162 31.3489 35.2212 32.8108 37.6436 33.1112C38.8797 33.2814 40.1358 33.2313 41.352 32.981C44.5121 32.2801 46.9445 30.5179 48.1707 27.3739C48.6093 26.2625 48.8386 25.091 48.4797 23.8895C48.2803 23.2386 47.9414 22.738 47.3732 22.5678Z" fill="#1CCA81"/>
</svg>
