<svg width="171" height="24" viewBox="0 0 171 24" fill="none" xmlns="http://www.w3.org/2000/svg">
<g opacity="0.5">
<path d="M85.9466 7.66198C86.0522 5.64315 86.7696 3.99845 87.895 2.71374V0.998447H86.3968C83.3723 0.998447 80.8119 2.16315 79.3208 4.78903H79.2364V1.28786H71.478V22.6479H79.2364V14.022C79.2364 10.3655 80.3055 7.57021 84.6102 7.57021C85.0815 7.57727 85.5246 7.60551 85.9466 7.66198ZM144.686 7.58433C145.333 5.69962 146.374 4.01256 147.732 2.66433V0.998447H146.241C143.216 0.998447 140.656 2.16315 139.165 4.78903H139.08V1.28786H131.315V22.6479H139.08V14.022C139.08 10.3655 140.15 7.57021 144.454 7.57021L144.686 7.58433ZM101.702 6.77962C100.507 6.15845 98.8397 5.74198 97.5173 5.74198C96.624 5.74198 95.0907 6.11609 95.0907 7.19609C95.0907 8.65727 97.5173 8.86198 98.5935 9.07374C102.209 9.77962 104.945 11.4455 104.945 15.3984C104.945 21.0173 99.6978 23.3537 94.6194 23.3537C91.5034 23.3537 88.4437 22.4784 85.7919 20.8973L88.6054 15.6032C90.181 16.6902 92.8258 17.7702 94.746 17.7702C95.7307 17.7702 97.1797 17.3114 97.1797 16.1467C97.1797 14.4808 94.746 14.3961 92.3123 13.7679C89.8856 13.1467 87.4589 11.982 87.4589 8.14904C87.4589 2.90433 92.3123 0.574917 97.0953 0.574917C99.5712 0.574917 102.04 0.949035 104.298 1.94433L101.702 6.77962ZM171 22.6479H163.242V20.269H163.157C161.793 22.3937 159.099 23.3467 156.545 23.3467C150.06 23.3467 145.502 18.0596 145.502 11.9396C145.502 5.82668 149.983 0.574917 156.461 0.574917C158.972 0.574917 161.624 1.49256 163.242 3.36315V1.28786H171V22.6479ZM153.521 11.989C153.521 14.6926 155.357 16.7749 158.508 16.7749C161.659 16.7749 163.488 14.6996 163.488 11.989C163.488 9.36315 161.659 7.1608 158.508 7.1608C155.357 7.1608 153.521 9.36315 153.521 11.989ZM130.091 13.2384H113.758C113.758 16.3161 115.426 17.982 118.619 17.982C120.279 17.982 121.475 17.4455 122.326 16.0267H129.789C128.551 21.0667 123.648 23.3537 118.661 23.3537C111.416 23.3537 106 19.3514 106 11.989C106 4.87374 110.98 0.581976 118.105 0.581976C125.695 0.581976 130.091 5.16315 130.091 12.4479V13.2384ZM122.888 8.86198C122.502 6.82198 120.581 5.48786 118.499 5.48786C116.234 5.48786 114.37 6.65256 113.892 8.86198H122.888ZM46.8033 11.6149C46.7962 11.4314 46.7822 11.2479 46.7681 11.0714V11.0643C46.5922 9.0808 45.9451 7.23139 44.8338 5.55139C44.3484 4.81021 43.7787 4.13256 43.1457 3.51845C42.2242 2.62903 41.1551 1.88786 39.9453 1.30903C38.1376 0.433741 36.1329 -0.00390625 33.9946 -0.00390625C33.7836 -0.00390625 33.5655 -0.00390625 33.3475 0.0102114C31.8493 0.0807996 30.3933 0.363153 29.0287 0.871388C27.6571 1.36551 26.4543 2.02198 25.4766 2.81962C25.2797 2.98198 25.0616 3.17256 24.8295 3.39139L24.6607 3.55374L24.4286 3.8008L24.3231 3.90668L24.2738 3.96315L23.9995 4.25256C23.8026 4.47845 23.6126 4.70433 23.4227 4.93727L23.4157 4.93021C23.0429 5.37492 22.6912 5.85492 22.438 6.27845C22.2621 6.55374 22.0933 6.82903 21.9316 7.11139L19.6948 11.6502L19.5752 11.8832L19.329 12.3843C18.8367 13.3796 18.3162 14.3749 17.7253 15.1937C16.417 16.6337 14.9329 17.3396 13.0337 17.3396C12.9001 17.3396 12.7664 17.3326 12.6258 17.3255C11.4792 17.2761 10.4945 17.0079 9.62231 16.4926C9.53087 16.4361 9.43943 16.3796 9.34799 16.3232C8.63757 15.8502 8.08893 15.2361 7.68097 14.4737C7.21673 13.6126 7.01275 12.7302 7.04792 11.7914C7.04792 11.7632 7.04792 11.742 7.04792 11.7208C7.11123 10.2314 7.67393 9.07374 8.81342 8.07845C9.08774 7.84551 9.37613 7.63374 9.68562 7.45727C9.72782 7.42903 9.77002 7.40786 9.81222 7.38668C10.6563 6.9208 11.6199 6.69492 12.7242 6.69492L13.0689 6.70198C14.8203 6.76551 16.1708 7.31609 17.254 8.38904L20.6373 2.29727C19.8284 1.7608 18.9211 1.28786 17.9082 0.913741C17.873 0.899623 17.8308 0.885506 17.7886 0.871388C17.669 0.829035 17.5495 0.786682 17.4229 0.744329C16.3537 0.384329 15.2283 0.165506 14.0747 0.066682C14.0466 0.0596232 14.0114 0.0596232 13.9833 0.0525643C13.8075 0.0384467 13.6246 0.0172702 13.4487 0.0102114C13.2658 0.00315257 13.0759 -0.00390625 12.879 -0.00390625H12.7664C10.6422 0.00315257 8.66571 0.4408 6.85801 1.30903C4.83929 2.28315 3.2004 3.70904 1.98355 5.54433C0.773724 7.37962 0.105508 9.41962 0.0140677 11.6079C0.00703385 11.7984 0 11.982 0 12.1655C0 15.222 1.11135 17.9184 3.31998 20.1773C5.62708 22.549 8.63054 23.8267 12.2319 23.9749C12.464 23.982 12.6891 23.989 12.9212 23.989C14.961 23.989 16.8461 23.622 18.5342 22.8949C18.9562 22.7114 19.3642 22.4996 19.7862 22.2667C20.0113 22.1326 20.2294 21.9914 20.4404 21.8432L20.6022 21.7373L20.8694 21.5537C21.186 21.3208 21.4884 21.0737 21.7768 20.8055L21.8753 20.7067C22.0441 20.5443 22.2129 20.3749 22.3817 20.2055L22.9866 19.5208L23.2187 19.2314L23.3243 19.0761L23.4298 18.9208C24.3301 17.4032 27.2632 11.8761 27.2632 11.8761V11.862L27.4391 11.5232L27.5868 11.262C28.0158 10.4714 28.3324 9.91374 28.7474 9.3208L28.7614 9.30668C29.7251 7.90198 31.3851 6.90668 33.3405 6.73727C36.6182 6.45492 39.4881 8.61492 39.7553 11.5655C40.0156 14.5161 37.5748 17.1349 34.2971 17.4173C33.6148 17.4737 32.9536 17.4314 32.3276 17.2902L32.3135 17.2973C29.9079 16.7961 28.3746 15.0314 27.6219 14.2479L24.4708 20.0714C24.4708 20.0714 25.4485 21.0596 26.1237 21.5608C26.799 22.0549 27.6641 22.542 28.3605 22.8455C30.0416 23.5655 31.8704 23.9961 33.8961 23.9961C34.1283 23.9961 34.0861 23.9961 34.3252 23.989C37.9265 23.8408 41.134 22.4573 43.4481 20.0855C45.6427 17.8337 46.8314 15.2643 46.8384 12.222V12.1302C46.8173 11.9537 46.8103 11.7843 46.8033 11.6149ZM58.8733 23.3679C57.2345 23.3679 55.7574 23.1773 54.4209 22.7961C53.0845 22.4149 51.952 21.8149 51.0095 20.989C50.067 20.1632 49.3354 19.1114 48.822 17.8337C48.3085 16.5561 48.0553 15.0173 48.0553 13.2243V1.2808H55.5393V13.1255C55.5393 14.4667 55.8558 15.4408 56.4959 16.0479C57.136 16.6549 57.9449 16.9584 58.9296 16.9584C59.9355 16.9584 60.7514 16.6761 61.3844 16.1114C62.0104 15.5467 62.327 14.6008 62.327 13.2808V1.2808H69.811V13.062C69.811 14.9184 69.5507 16.4926 69.0232 17.7914C68.4957 19.0902 67.7571 20.1561 66.8075 20.982C65.8509 21.8079 64.6974 22.4079 63.3469 22.789C61.9964 23.1773 60.5052 23.3679 58.8733 23.3679Z" fill="#878787"/>
</g>
</svg>
