<svg width="67" height="93" viewBox="0 0 67 93" fill="none" xmlns="http://www.w3.org/2000/svg">
<g opacity="0.15">
<path d="M18.3731 67.1279C23.6975 70.3191 29.6105 72.0319 35.6306 72.2393V82.2185L26.5425 82.1373C26.5247 82.1373 26.5158 82.1373 26.4979 82.1373C23.858 82.1373 21.7087 84.2918 21.6819 86.9602L21.6551 90.2956H19.5146C18.7744 90.2956 18.1769 90.8996 18.1769 91.6478C18.1769 92.396 18.7744 93 19.5146 93H55.4209C56.1612 93 56.7587 92.396 56.7587 91.6478C56.7587 90.8996 56.1612 90.2956 55.4209 90.2956H52.4332L52.4599 87.2216C52.4689 85.9235 51.9784 84.6975 51.0776 83.769C50.1768 82.8405 48.9728 82.3266 47.6885 82.3176L38.2972 82.2365V72.2302C40.8212 72.1221 43.3452 71.7705 45.8513 71.1214C46.1902 71.0313 46.4934 70.8059 46.6718 70.4994C46.8502 70.1929 46.9037 69.8233 46.8145 69.4717L45.441 64.0359C45.7621 63.9368 46.0832 63.8286 46.3953 63.7204C46.5291 63.6753 46.654 63.6303 46.7877 63.5852C47.4477 63.3508 48.0988 63.0894 48.732 62.8099C48.8925 62.7378 49.0531 62.6657 49.2136 62.5936C49.8379 62.3051 50.4622 61.9986 51.0686 61.6651C51.1846 61.602 51.3005 61.5298 51.4165 61.4667C51.9873 61.1422 52.5492 60.7997 53.1021 60.4301C53.1824 60.376 53.2715 60.3219 53.3518 60.2678C53.9672 59.8531 54.5558 59.4114 55.1445 58.9517C55.2158 58.8885 55.2961 58.8345 55.3674 58.7714C55.9739 58.2846 56.5625 57.7617 57.1244 57.2208C57.1333 57.2118 57.1422 57.2028 57.1511 57.1938C58.48 55.9227 59.6929 54.5255 60.781 53.011L61.4678 52.0915L61.432 52.0735C61.7264 51.6318 62.0028 51.181 62.2704 50.7303C66.2838 43.8972 67.4165 35.9012 65.4811 28.2027C63.5369 20.5042 58.7476 14.0316 51.9873 9.98406C51.5324 9.71362 51.0776 9.4522 50.6138 9.2088L50.6406 9.17274L49.5971 8.69497C47.9383 7.89266 46.217 7.26164 44.4689 6.79288C44.4422 6.78386 44.4154 6.77485 44.3886 6.77485C44.0586 6.6847 43.7376 6.61258 43.4076 6.53145C43.2827 6.50441 43.1578 6.47736 43.033 6.45032C42.7654 6.39623 42.4979 6.34214 42.2214 6.28805C42.0163 6.252 41.8112 6.21594 41.606 6.17988C41.392 6.14382 41.1868 6.10776 40.9728 6.08072C40.6606 6.03565 40.3485 5.99959 40.0453 5.97254C39.9293 5.96353 39.8045 5.9455 39.6885 5.93648C38.7699 5.84634 37.8424 5.81028 36.9148 5.81028C36.8792 5.81028 36.8346 5.81028 36.7989 5.81028C36.3886 5.81028 35.9695 5.82831 35.5503 5.84634C35.4522 5.85535 35.363 5.85535 35.2649 5.86437C34.9082 5.88239 34.5425 5.91846 34.1857 5.95451C34.0698 5.96353 33.945 5.98156 33.829 5.99057C33.4901 6.02663 33.1512 6.0717 32.8212 6.12579C32.6875 6.14382 32.5626 6.16185 32.4288 6.17988C32.0899 6.23397 31.7599 6.29707 31.421 6.36017C31.2961 6.38722 31.1802 6.40525 31.0553 6.43229C31.0375 6.43229 31.0107 6.44131 30.9929 6.44131L29.5481 1.00547C29.3608 0.293311 28.6384 -0.139392 27.9249 0.0409006C18.5336 2.46584 10.6406 8.43354 5.69082 16.8622C0.740994 25.2819 -0.659219 35.153 1.73988 44.6454C4.13007 54.1468 10.0342 62.1248 18.3731 67.1279ZM49.1868 85.6621C49.5882 86.0767 49.8022 86.6176 49.8022 87.1946L49.7755 90.1874L24.3396 89.9711L24.3664 86.9782C24.3753 85.7883 25.3296 84.8327 26.5068 84.8327C26.5158 84.8327 26.5158 84.8327 26.5247 84.8327L47.6796 85.013C48.2504 85.022 48.7855 85.2564 49.1868 85.6621ZM35.2025 62.5485C34.6852 62.5124 34.1679 62.4674 33.6507 62.3952C33.5525 62.3862 33.4634 62.3772 33.3653 62.3592C32.7499 62.269 32.1256 62.1699 31.5191 62.0347C31.4745 62.0256 31.421 62.0166 31.3764 61.9986C30.0832 61.7101 28.7989 61.3315 27.5414 60.8537C28.5046 59.7089 29.5659 58.6722 30.6807 57.7257C32.3307 59.763 34.0877 61.4036 35.8892 62.5755C35.7911 62.5755 35.7019 62.5755 35.6038 62.5665C35.4611 62.5665 35.3273 62.5575 35.2025 62.5485ZM23.314 58.8164C17.5526 55.3638 13.3698 49.9731 11.4077 43.5546L22.4043 40.715C24.0097 46.5204 26.3374 51.5957 29.0576 55.5712C27.586 56.8062 26.2304 58.2034 24.9907 59.7449C24.4377 59.4475 23.8669 59.141 23.314 58.8164ZM13.9673 21.7662C14.2973 21.2073 14.6451 20.6754 15.0018 20.1526C16.8123 20.9098 18.6763 21.4687 20.5582 21.8383C20.0498 26.6431 20.4065 32.2232 21.7532 38.0918L10.7566 40.9314C9.42776 34.3417 10.5515 27.5897 13.9673 21.7662ZM19.6395 14.9692C20.1122 14.5635 20.6027 14.1669 21.1022 13.7973C21.1824 13.7342 21.2627 13.6801 21.3519 13.617C21.771 13.3105 22.1903 13.022 22.6273 12.7516C22.7432 12.6794 22.8591 12.5983 22.9751 12.5262C23.0553 12.4811 23.1356 12.436 23.2159 12.382C22.1902 14.284 21.4233 16.5738 20.9417 19.161C19.5058 18.8725 18.0877 18.4669 16.6964 17.935C17.5704 16.8983 18.5158 15.9518 19.5146 15.0773C19.5592 15.0413 19.5949 15.0052 19.6395 14.9692ZM40.2237 8.73102C40.3218 8.74004 40.411 8.74906 40.5091 8.75807C41.1601 8.84822 41.8112 8.96541 42.4533 9.10063C42.5068 9.10964 42.5514 9.12767 42.6049 9.13668C43.2025 9.2719 43.7911 9.41614 44.3886 9.59643C44.46 9.61446 44.5402 9.64151 44.6116 9.66855C45.1824 9.83983 45.7443 10.0291 46.3061 10.2455C46.3418 10.2545 46.3686 10.2725 46.4042 10.2815C45.441 11.4264 44.3797 12.4631 43.2649 13.4096C41.6149 11.3723 39.858 9.73165 38.0654 8.55975C38.2616 8.56876 38.4578 8.56876 38.654 8.57778C39.1713 8.61384 39.6975 8.65891 40.2237 8.73102ZM50.6852 48.8823C47.7509 48.5848 44.781 48.7471 41.829 49.3691L38.5915 36.5412L49.5882 33.7016C50.819 39.1374 51.14 44.402 50.6852 48.8823ZM54.422 56.058C54.3775 56.094 54.3328 56.1301 54.2972 56.1751C53.8245 56.5808 53.3429 56.9684 52.8434 57.347C52.7543 57.4102 52.674 57.4733 52.5848 57.5364C52.1746 57.8338 51.7554 58.1223 51.3273 58.3927C51.2025 58.4739 51.0865 58.555 50.9616 58.6271C50.8814 58.6722 50.8011 58.7173 50.7209 58.7623C51.7465 56.8603 52.5135 54.5705 52.9951 51.9833C54.431 52.2718 55.8491 52.6775 57.2404 53.2093C56.3663 54.228 55.4209 55.1835 54.422 56.058ZM23.2427 22.244C24.188 22.3341 25.1334 22.3882 26.0876 22.3882C28.0854 22.3882 30.1011 22.1629 32.0988 21.7482L35.3363 34.5851L24.3396 37.4247C23.1178 31.9978 22.7878 26.7333 23.2427 22.244ZM29.1021 9.85786L31.4388 19.1159C28.8346 19.6568 26.2214 19.792 23.635 19.5486C24.518 14.8159 26.3998 11.2732 29.1021 9.85786ZM36.0052 37.2083L39.2515 50.0632C36.3708 50.9466 33.6774 52.2267 31.2426 53.9035C28.7187 50.1894 26.5069 45.4026 25.0085 40.0389L36.0052 37.2083ZM39.9026 52.6775L42.2393 61.9355C39.198 62.0076 35.8714 59.808 32.848 56.076C34.9973 54.6156 37.3697 53.4707 39.9026 52.6775ZM44.8346 61.2684L42.4979 52.0104C45.1021 51.4695 47.7153 51.3343 50.3017 51.5777C49.4187 56.3194 47.528 59.8621 44.8346 61.2684ZM37.9316 33.918L34.6852 21.0631C37.5659 20.1796 40.2593 18.8996 42.6941 17.2228C45.2181 20.9369 47.4299 25.7236 48.9282 31.0784L37.9316 33.918ZM34.0252 18.4488L31.6886 9.19979C31.7331 9.19979 31.7778 9.19077 31.8224 9.19077C34.819 9.19077 38.1011 11.3813 41.0799 15.0503C38.9305 16.5197 36.567 17.6645 34.0252 18.4488ZM59.9694 49.3601C59.6484 49.91 59.3005 50.4418 58.9349 50.9737C57.1244 50.2165 55.2604 49.6575 53.3786 49.2879C53.8869 44.4922 53.5302 38.9031 52.1835 33.0435L63.1801 30.2039C64.509 36.7846 63.3853 43.5456 59.9694 49.3601ZM62.5201 27.5807L51.5235 30.4203C49.9182 24.6148 47.5904 19.5396 44.8613 15.5731C46.3418 14.3381 47.6974 12.9319 48.9282 11.3994C49.499 11.6878 50.0608 11.9943 50.6138 12.3279C56.3752 15.7715 60.567 21.1622 62.5201 27.5807ZM7.99183 18.2505C12.3441 10.8314 19.1758 5.46772 27.3095 3.02475L28.3976 7.1174C28.1033 7.20755 27.8179 7.30671 27.5325 7.40587C27.4076 7.45095 27.2738 7.487 27.149 7.53208C26.489 7.76646 25.8379 8.02788 25.1958 8.30734C25.0352 8.37946 24.8837 8.45157 24.7231 8.52369C24.0899 8.81216 23.4745 9.11865 22.868 9.4522C22.7521 9.5153 22.6451 9.58742 22.5291 9.65052C21.9494 9.97505 21.3876 10.3266 20.8346 10.6872C20.7544 10.7413 20.6741 10.7864 20.5938 10.8405C19.9784 11.2551 19.3809 11.6968 18.8012 12.1656C18.7298 12.2287 18.6495 12.2828 18.5782 12.3459C17.9717 12.8327 17.3831 13.3555 16.8213 13.8964C16.8123 13.9054 16.8034 13.9145 16.7945 13.9235C15.4656 15.1945 14.2527 16.5918 13.1646 18.1063L12.4779 19.0258L12.5136 19.0438C12.2193 19.4855 11.9428 19.9362 11.6752 20.387C7.66185 27.2201 6.52921 35.2161 8.46454 42.9146C10.4088 50.6131 15.1981 57.0856 21.9584 61.1332C22.4132 61.4036 22.877 61.656 23.3408 61.8994L23.314 61.9445L24.8301 62.6386C24.8747 62.6567 24.9282 62.6837 24.9817 62.7017C25.3652 62.873 25.7488 63.0353 26.1323 63.1976C26.2661 63.2516 26.4087 63.3057 26.5425 63.3598C26.9349 63.5131 27.3363 63.6573 27.7287 63.7925C27.8446 63.8286 27.9517 63.8646 28.0676 63.9007C28.7187 64.108 29.3787 64.2973 30.0386 64.4596C30.324 64.5317 30.6005 64.6038 30.8859 64.6669C31.1356 64.721 31.3853 64.7661 31.635 64.8112C31.9918 64.8743 32.3485 64.9374 32.7053 64.9915C32.9193 65.0275 33.1334 65.0546 33.3474 65.0816C33.7755 65.1357 34.2125 65.1808 34.6406 65.2168C34.7922 65.2258 34.9438 65.2439 35.0955 65.2529C35.7019 65.2889 36.3084 65.316 36.9148 65.316C38.8858 65.316 40.8747 65.0996 42.8457 64.694L43.8892 68.8137C35.5949 70.6076 27.0687 69.2013 19.7287 64.8022C12.0052 60.1686 6.5381 52.7766 4.31737 43.9873C2.09664 35.198 3.40767 26.0482 7.99183 18.2505Z" fill="#878787"/>
</g>
</svg>
