<svg width="84" height="24" viewBox="0 0 84 24" fill="none" xmlns="http://www.w3.org/2000/svg">
<g clip-path="url(#clip0_1_12757)">
<path d="M65.4151 12.6257V18.0738H63.0312V10.1052H64.703L65.2061 10.7392C66.9244 9.40848 68.9212 9.76073 69.85 10.9897L70.2912 10.6453C71.2432 9.90946 72.3035 9.72159 73.449 10.0269C74.1611 10.2226 74.7106 10.6688 74.9583 11.3733C75.144 11.9212 75.3066 12.4926 75.322 13.0641C75.3685 14.6688 75.3453 16.2734 75.3453 17.8703C75.3375 17.9486 75.3298 18.019 75.3143 18.0895H72.9305V16.6961V14.1052C72.9305 13.9486 72.9304 13.7842 72.915 13.6277C72.8144 12.4143 72.141 11.9525 70.9878 12.3282C70.7788 12.4065 70.5853 12.5005 70.3918 12.6022V18.0738H67.9615V17.5024V14.019V13.8625C67.9305 12.3439 67.0095 11.8038 65.6628 12.4926C65.5776 12.5239 65.5235 12.5552 65.4151 12.6257Z" fill="#555555"/>
<path d="M41.8824 7.40557H44.3901C44.4056 7.53081 44.421 7.63257 44.421 7.73433C44.4133 9.82435 44.4133 11.93 44.3901 14.02C44.3823 14.4114 44.3359 14.7872 44.2508 15.1707C43.887 16.8381 42.8886 17.8478 41.209 18.1688C40.079 18.3958 38.9103 18.3801 37.7958 18.114C36.2478 17.7382 35.2958 16.5641 35.0946 14.8185C35.0249 14.1375 34.9862 13.4486 34.9862 12.7676C34.9708 11.1629 34.9785 9.55821 34.9785 7.96134V7.41339H37.5017V8.01613C37.5017 9.74607 37.4862 11.4682 37.5094 13.1981C37.5171 13.6913 37.5868 14.1766 37.7106 14.6541C37.8577 15.2412 38.2679 15.6639 38.8639 15.75C39.4289 15.8361 40.0016 15.8361 40.5666 15.75C41.2555 15.6404 41.6192 15.1081 41.7586 14.4349C41.836 14.0357 41.8747 13.6365 41.8747 13.2294C41.8901 11.3038 41.8824 9.386 41.8824 7.40557ZM53.376 18.0905H51.89L51.4488 17.5347C50.6206 18.1453 49.6841 18.3332 48.6779 18.2627C47.0681 18.1453 45.9458 17.2451 45.5124 15.6717C45.2337 14.6854 45.2337 13.6443 45.5201 12.6502C45.9845 11.0455 47.3157 9.96525 48.9643 9.90263C49.6145 9.87915 50.2723 9.96525 50.9612 10.0122V6.75586H53.3605V18.0905H53.376ZM50.9689 15.7891V12.2666C50.8219 12.1962 50.6903 12.1179 50.5432 12.0709C49.3203 11.6326 48.2135 12.1257 47.8962 13.2608C47.8188 13.5112 47.7801 13.7774 47.7801 14.0357C47.7956 14.8107 47.9272 15.5778 48.6934 15.9692C49.4674 16.3684 50.2491 16.2666 50.9689 15.7891Z" fill="#555555"/>
<path d="M61.9916 14.4664H57.0304C56.8911 15.1787 57.34 15.8989 58.083 16.1337C58.9189 16.3999 59.7703 16.3138 60.5985 16.0555C60.9468 15.9459 61.2641 15.7815 61.6356 15.6249L61.3183 17.5036C60.7997 17.9576 60.1883 18.1455 59.5381 18.2159C58.6713 18.3177 57.7967 18.2942 56.953 18.0202C55.7998 17.6367 55.0181 16.8695 54.6621 15.6954C54.3447 14.6621 54.3293 13.5584 54.6311 12.5173C55.0568 11.0065 56.2642 10.0124 57.8199 9.91064C58.2533 9.8715 58.6867 9.87933 59.1202 9.94195C60.3121 10.1376 61.1403 10.8265 61.5892 11.9615C61.9065 12.7443 62.0226 13.5819 61.9916 14.4664ZM56.9608 13.2609H59.9948C59.9251 12.2512 59.2208 11.7658 58.532 11.7658C57.6574 11.7737 57.0846 12.2981 56.9608 13.2609Z" fill="#555555"/>
<path d="M78.0764 10.1055C78.3783 10.9665 78.6724 11.8276 78.9665 12.6808C79.2606 13.5419 79.5547 14.4108 79.8875 15.3971L81.6135 10.0977H83.9974L79.8333 20.7669H77.4185L78.564 17.808L75.3984 10.1055H78.0764Z" fill="#555555"/>
<path d="M18.6771 11.8355L18.3288 12.5556C17.2375 15.0214 16.0455 17.4402 14.4898 19.6554C13.6694 20.8296 12.7484 21.9098 11.5874 22.7709C10.5426 23.5302 9.38932 23.9999 8.0813 23.992C6.65717 23.9842 5.51169 23.3893 4.66805 22.2308C3.90181 21.174 3.59222 19.9529 3.49934 18.6613C3.3755 16.9314 3.66961 15.2562 4.0566 13.5889C4.14948 13.1975 4.22688 12.8139 4.3275 12.3521C3.97921 12.5556 3.69283 12.7357 3.39872 12.8922C2.90337 13.1662 2.38481 13.3306 1.81206 13.3149C0.697532 13.2601 -0.0300083 12.4382 0.000950912 11.2719C0.821369 10.5517 1.65727 9.89418 2.39255 9.14272C4.35072 7.14663 5.85224 4.80612 6.99773 2.24643C7.168 1.8707 7.35376 1.49497 7.56273 1.13489C8.11226 0.250348 8.98685 -0.148869 9.89241 0.0468258C10.7593 0.234693 11.3088 0.892227 11.4868 1.95681C11.719 3.31884 11.4404 4.63391 11.1308 5.94115C10.5116 8.50867 9.86919 11.0762 9.26549 13.6515C8.97137 14.9118 8.80884 16.1956 8.89398 17.495C8.9172 17.8785 8.99459 18.2543 9.11843 18.6143C9.38158 19.311 9.98529 19.4911 10.558 19.0136C10.9141 18.7004 11.2237 18.3639 11.51 17.9881C13.1199 15.9294 14.4434 13.675 15.6276 11.3502C16.6338 9.36972 17.6245 7.37364 18.6384 5.39321C18.8087 5.04878 19.0099 4.72784 19.2034 4.39908C19.9541 3.14663 21.7962 3.25622 22.5315 4.49301C22.934 5.15837 23.1275 5.90984 23.1739 6.67696C23.2358 7.4754 23.2513 8.28166 23.2823 9.08009C23.3519 10.8257 23.4138 12.5635 23.499 14.3091C23.5222 14.6378 23.5918 14.9588 23.7157 15.2719C23.9401 15.859 24.3581 16.0703 24.9541 15.8981C25.2869 15.8042 25.5965 15.6554 25.8751 15.4519C26.6568 14.8492 27.4076 14.2151 28.2202 13.5419C28.5608 13.6437 28.762 13.949 28.8704 14.3247C29.0871 15.0449 28.9478 15.7494 28.6846 16.4147C27.9571 18.3012 26.5098 19.358 24.6212 19.7729C23.9014 19.9216 23.1507 19.9529 22.4154 19.8511C20.9758 19.6711 20.0161 18.7944 19.4511 17.4558C18.9247 16.2112 18.8087 14.8961 18.7545 13.5654C18.7313 12.994 18.7545 12.4304 18.7545 11.8511L18.6771 11.8355Z" fill="#8A47CB"/>
</g>
<defs>
<clipPath id="clip0_1_12757">
<rect width="84" height="24" fill="white"/>
</clipPath>
</defs>
</svg>
